<svg id="Layer_1" data-name="Layer 1" xmlns="http://www.w3.org/2000/svg" viewBox="0 0 213.16 63.18"><defs><style>.cls-1{fill:#2fe557;}.cls-2{fill:#2fe458;}.cls-3{fill:#2ee459;}.cls-4{fill:#2ee35a;}.cls-5{fill:#2ee35b;}.cls-6{fill:#2de25c;}.cls-7{fill:#2de25d;}.cls-8{fill:#2de15e;}.cls-9{fill:#2ce15f;}.cls-10{fill:#2ce060;}.cls-11{fill:#2cdf61;}.cls-12{fill:#2bdf62;}.cls-13{fill:#2bde63;}.cls-14{fill:#2bde64;}.cls-15{fill:#2add65;}.cls-16{fill:#2add66;}.cls-17{fill:#2adc67;}.cls-18{fill:#2adb68;}.cls-19{fill:#29db69;}.cls-20{fill:#29da6a;}.cls-21{fill:#29da6b;}.cls-22{fill:#28d96c;}.cls-23{fill:#28d96d;}.cls-24{fill:#28d86e;}.cls-25{fill:#27d86f;}.cls-26{fill:#27d770;}.cls-27{fill:#27d671;}.cls-28{fill:#26d672;}.cls-29{fill:#26d573;}.cls-30{fill:#26d574;}.cls-31{fill:#25d475;}.cls-32{fill:#25d476;}.cls-33{fill:#25d377;}.cls-34{fill:#24d278;}.cls-35{fill:#24d279;}.cls-36{fill:#24d17a;}.cls-37{fill:#23d17b;}.cls-38{fill:#23d07c;}.cls-39{fill:#23d07d;}.cls-40{fill:#22cf7e;}.cls-41{fill:#22cf7f;}.cls-42{fill:#22ce80;}.cls-43{fill:#21cd81;}.cls-44{fill:#21cd82;}.cls-45{fill:#21cc83;}.cls-46{fill:#21cc84;}.cls-47{fill:#20cb85;}.cls-48{fill:#20cb86;}.cls-49{fill:#20ca87;}.cls-50{fill:#1fc988;}.cls-51{fill:#1fc989;}.cls-52{fill:#1fc88a;}.cls-53{fill:#1ec88b;}.cls-54{fill:#1ec78c;}.cls-55{fill:#1ec78d;}.cls-56{fill:#1dc68e;}.cls-57{fill:#1dc68f;}.cls-58{fill:#1dc590;}.cls-59{fill:#1cc491;}.cls-60{fill:#1cc492;}.cls-61{fill:#1cc393;}.cls-62{fill:#1bc394;}.cls-63{fill:#1bc295;}.cls-64{fill:#1bc296;}.cls-65{fill:#1ac197;}.cls-66{fill:#1ac098;}.cls-67{fill:#1ac099;}.cls-68{fill:#19bf9a;}.cls-69{fill:#19bf9b;}.cls-70{fill:#19be9c;}.cls-71{fill:#18be9d;}.cls-72{fill:#18bd9e;}.cls-73{fill:#18bd9f;}.cls-74{fill:#18bca0;}.cls-75{fill:#17bba1;}.cls-76{fill:#17bba2;}.cls-77{fill:#17baa3;}.cls-78{fill:#16baa4;}.cls-79{fill:#16b9a5;}.cls-80{fill:#16b9a6;}.cls-81{fill:#15b8a7;}.cls-82{fill:#15b8a8;}.cls-83{fill:#15b7a9;}.cls-84{fill:#14b6aa;}.cls-85{fill:#14b6ab;}.cls-86{fill:#14b5ac;}.cls-87{fill:#13b5ad;}.cls-88{fill:#13b4ae;}.cls-89{fill:#13b4af;}.cls-90{fill:#12b3b0;}.cls-91{fill:#12b2b1;}.cls-92{fill:#12b2b2;}.cls-93{fill:#11b1b3;}.cls-94{fill:#11b1b4;}.cls-95{fill:#11b0b5;}.cls-96{fill:#10b0b6;}.cls-97{fill:#10afb7;}.cls-98{fill:#10afb8;}.cls-99{fill:#0faeb9;}.cls-100{fill:#0fadba;}.cls-101{fill:#0fadbb;}.cls-102{fill:#0eacbc;}.cls-103{fill:#0eacbd;}.cls-104{fill:#0eabbe;}.cls-105{fill:#0eabbf;}.cls-106{fill:#0daac0;}.cls-107{fill:#0da9c1;}.cls-108{fill:#0da9c2;}.cls-109{fill:#0ca8c3;}.cls-110{fill:#0ca8c4;}.cls-111{fill:#0ca7c5;}.cls-112{fill:#0ba7c6;}.cls-113{fill:#0ba6c7;}.cls-114{fill:#0ba6c8;}.cls-115{fill:#0aa5c9;}.cls-116{fill:#0aa4ca;}.cls-117{fill:#0aa4cb;}.cls-118{fill:#09a3cc;}.cls-119{fill:#09a3cd;}.cls-120{fill:#09a2ce;}.cls-121{fill:#08a2cf;}.cls-122{fill:#08a1d0;}.cls-123{fill:#08a0d1;}.cls-124{fill:#07a0d2;}.cls-125{fill:#079fd3;}.cls-126{fill:#079fd4;}.cls-127{fill:#069ed5;}.cls-128{fill:#069ed6;}.cls-129{fill:#069dd7;}.cls-130{fill:#059dd8;}.cls-131{fill:#059cd9;}.cls-132{fill:#059bda;}.cls-133{fill:#059bdb;}.cls-134{fill:#049adc;}.cls-135{fill:#049add;}.cls-136{fill:#0499de;}.cls-137{fill:#0399df;}.cls-138{fill:#0398e0;}.cls-139{fill:#0397e1;}.cls-140{fill:#0297e2;}.cls-141{fill:#0296e3;}.cls-142{fill:#0296e4;}.cls-143{fill:#0195e5;}.cls-144{fill:#0195e6;}.cls-145{fill:#0194e7;}.cls-146{fill:#0094e8;}.cls-147{fill:#0093e9;}.cls-148{fill:#17bca0;}.cls-149{fill:#fff;}</style></defs><title>footer-logo</title><path class="cls-1" d="M17,29.32a8.48,8.48,0,1,1-8.48-8.48A8.48,8.48,0,0,1,17,29.32"/><path class="cls-2" d="M17,29.17A8.48,8.48,0,1,1,8.56,20.7,8.48,8.48,0,0,1,17,29.17"/><path class="cls-3" d="M17.13,29a8.48,8.48,0,1,1-8.48-8.47A8.48,8.48,0,0,1,17.13,29"/><path class="cls-4" d="M17.22,28.89a8.48,8.48,0,1,1-8.48-8.48,8.48,8.48,0,0,1,8.48,8.48"/><path class="cls-5" d="M17.31,28.75a8.48,8.48,0,1,1-8.47-8.48,8.47,8.47,0,0,1,8.47,8.48"/><path class="cls-6" d="M17.4,28.6a8.48,8.48,0,1,1-8.47-8.47A8.48,8.48,0,0,1,17.4,28.6"/><path class="cls-7" d="M17.49,28.46A8.48,8.48,0,1,1,9,20a8.47,8.47,0,0,1,8.47,8.47"/><path class="cls-8" d="M17.58,28.32a8.47,8.47,0,1,1-8.47-8.48,8.47,8.47,0,0,1,8.47,8.48"/><path class="cls-9" d="M17.67,28.17A8.47,8.47,0,1,1,9.2,19.7a8.48,8.48,0,0,1,8.47,8.47"/><path class="cls-10" d="M17.76,28a8.47,8.47,0,1,1-8.47-8.47A8.48,8.48,0,0,1,17.76,28"/><path class="cls-11" d="M17.85,27.89a8.47,8.47,0,1,1-8.47-8.47,8.47,8.47,0,0,1,8.47,8.47"/><path class="cls-12" d="M18,27.75a8.48,8.48,0,1,1-8.48-8.48A8.48,8.48,0,0,1,18,27.75"/><path class="cls-13" d="M18,27.6a8.48,8.48,0,1,1-8.48-8.47A8.48,8.48,0,0,1,18,27.6"/><path class="cls-14" d="M18.13,27.46A8.48,8.48,0,1,1,9.65,19a8.48,8.48,0,0,1,8.48,8.47"/><path class="cls-15" d="M18.22,27.32a8.48,8.48,0,1,1-8.48-8.48,8.48,8.48,0,0,1,8.48,8.48"/><path class="cls-16" d="M18.31,27.18A8.48,8.48,0,1,1,9.83,18.7a8.47,8.47,0,0,1,8.48,8.48"/><path class="cls-17" d="M18.4,27a8.48,8.48,0,1,1-8.47-8.47A8.48,8.48,0,0,1,18.4,27"/><path class="cls-18" d="M18.49,26.89A8.48,8.48,0,1,1,10,18.42a8.47,8.47,0,0,1,8.47,8.47"/><path class="cls-19" d="M18.58,26.75a8.48,8.48,0,1,1-8.47-8.48,8.47,8.47,0,0,1,8.47,8.48"/><path class="cls-20" d="M18.67,26.6a8.47,8.47,0,1,1-8.47-8.47,8.48,8.48,0,0,1,8.47,8.47"/><path class="cls-21" d="M18.76,26.46A8.47,8.47,0,1,1,10.29,18a8.48,8.48,0,0,1,8.47,8.47"/><path class="cls-22" d="M18.85,26.32a8.47,8.47,0,1,1-8.47-8.48,8.47,8.47,0,0,1,8.47,8.48"/><path class="cls-23" d="M18.94,26.18a8.47,8.47,0,1,1-8.47-8.48,8.47,8.47,0,0,1,8.47,8.48"/><path class="cls-24" d="M19,26a8.48,8.48,0,1,1-8.48-8.47A8.48,8.48,0,0,1,19,26"/><path class="cls-25" d="M19.13,25.89a8.48,8.48,0,1,1-8.48-8.47,8.48,8.48,0,0,1,8.48,8.47"/><path class="cls-26" d="M19.22,25.75a8.48,8.48,0,1,1-8.48-8.48,8.48,8.48,0,0,1,8.48,8.48"/><path class="cls-27" d="M19.31,25.6a8.48,8.48,0,1,1-8.48-8.47,8.48,8.48,0,0,1,8.48,8.47"/><path class="cls-28" d="M19.4,25.46A8.48,8.48,0,1,1,10.93,17a8.48,8.48,0,0,1,8.47,8.47"/><path class="cls-29" d="M19.49,25.32A8.48,8.48,0,1,1,11,16.84a8.47,8.47,0,0,1,8.47,8.48"/><path class="cls-30" d="M19.58,25.18a8.48,8.48,0,1,1-8.47-8.48,8.47,8.47,0,0,1,8.47,8.48"/><path class="cls-31" d="M19.67,25a8.48,8.48,0,1,1-8.47-8.47A8.48,8.48,0,0,1,19.67,25"/><path class="cls-32" d="M19.76,24.89a8.47,8.47,0,1,1-8.47-8.47,8.48,8.48,0,0,1,8.47,8.47"/><path class="cls-33" d="M19.85,24.75a8.47,8.47,0,1,1-8.47-8.48,8.47,8.47,0,0,1,8.47,8.48"/><path class="cls-34" d="M19.94,24.6a8.47,8.47,0,1,1-8.47-8.47,8.47,8.47,0,0,1,8.47,8.47"/><path class="cls-35" d="M20,24.46A8.47,8.47,0,1,1,11.56,16,8.48,8.48,0,0,1,20,24.46"/><path class="cls-36" d="M20.13,24.32a8.48,8.48,0,1,1-8.48-8.47,8.48,8.48,0,0,1,8.48,8.47"/><path class="cls-37" d="M20.22,24.18a8.48,8.48,0,1,1-8.48-8.48,8.48,8.48,0,0,1,8.48,8.48"/><path class="cls-38" d="M20.31,24a8.48,8.48,0,1,1-8.48-8.47A8.48,8.48,0,0,1,20.31,24"/><path class="cls-39" d="M20.4,23.89a8.48,8.48,0,1,1-8.48-8.47,8.48,8.48,0,0,1,8.48,8.47"/><path class="cls-40" d="M20.49,23.75A8.48,8.48,0,1,1,12,15.27a8.47,8.47,0,0,1,8.48,8.48"/><path class="cls-41" d="M20.58,23.61a8.48,8.48,0,1,1-8.47-8.48,8.47,8.47,0,0,1,8.47,8.48"/><path class="cls-42" d="M20.67,23.46A8.48,8.48,0,1,1,12.2,15a8.48,8.48,0,0,1,8.47,8.47"/><path class="cls-43" d="M20.76,23.32a8.48,8.48,0,1,1-8.47-8.47,8.47,8.47,0,0,1,8.47,8.47"/><path class="cls-44" d="M20.85,23.18a8.47,8.47,0,1,1-8.47-8.48,8.47,8.47,0,0,1,8.47,8.48"/><path class="cls-45" d="M20.94,23a8.47,8.47,0,1,1-8.47-8.47A8.47,8.47,0,0,1,20.94,23"/><path class="cls-46" d="M21,22.89a8.47,8.47,0,1,1-8.47-8.47A8.48,8.48,0,0,1,21,22.89"/><path class="cls-47" d="M21.13,22.75a8.48,8.48,0,1,1-8.48-8.47,8.48,8.48,0,0,1,8.48,8.47"/><path class="cls-48" d="M21.22,22.61a8.48,8.48,0,1,1-8.48-8.48,8.48,8.48,0,0,1,8.48,8.48"/><path class="cls-49" d="M21.31,22.46A8.48,8.48,0,1,1,12.83,14a8.48,8.48,0,0,1,8.48,8.47"/><path class="cls-50" d="M21.4,22.32a8.48,8.48,0,1,1-8.48-8.47,8.48,8.48,0,0,1,8.48,8.47"/><path class="cls-51" d="M21.49,22.18A8.48,8.48,0,1,1,13,13.7a8.47,8.47,0,0,1,8.48,8.48"/><path class="cls-52" d="M21.58,22a8.48,8.48,0,1,1-8.47-8.48A8.47,8.47,0,0,1,21.58,22"/><path class="cls-53" d="M21.67,21.89a8.48,8.48,0,1,1-8.47-8.47,8.48,8.48,0,0,1,8.47,8.47"/><path class="cls-54" d="M21.76,21.75a8.48,8.48,0,1,1-8.47-8.47,8.47,8.47,0,0,1,8.47,8.47"/><path class="cls-55" d="M21.85,21.61a8.47,8.47,0,1,1-8.47-8.48,8.47,8.47,0,0,1,8.47,8.48"/><path class="cls-56" d="M21.94,21.46A8.47,8.47,0,1,1,13.47,13a8.47,8.47,0,0,1,8.47,8.47"/><path class="cls-57" d="M22,21.32a8.47,8.47,0,1,1-8.47-8.47A8.48,8.48,0,0,1,22,21.32"/><path class="cls-58" d="M22.12,21.18a8.47,8.47,0,1,1-8.47-8.47,8.47,8.47,0,0,1,8.47,8.47"/><path class="cls-59" d="M22.22,21a8.48,8.48,0,1,1-8.48-8.48A8.48,8.48,0,0,1,22.22,21"/><path class="cls-60" d="M22.31,20.89a8.48,8.48,0,1,1-8.48-8.47,8.48,8.48,0,0,1,8.48,8.47"/><path class="cls-61" d="M22.4,20.75a8.48,8.48,0,1,1-8.48-8.47,8.48,8.48,0,0,1,8.48,8.47"/><path class="cls-62" d="M22.49,20.61A8.48,8.48,0,1,1,14,12.13a8.48,8.48,0,0,1,8.48,8.48"/><path class="cls-63" d="M22.58,20.47A8.48,8.48,0,1,1,14.1,12a8.48,8.48,0,0,1,8.48,8.48"/><path class="cls-64" d="M22.67,20.32a8.48,8.48,0,1,1-8.47-8.47,8.48,8.48,0,0,1,8.47,8.47"/><path class="cls-65" d="M22.76,20.18a8.48,8.48,0,1,1-8.47-8.47,8.47,8.47,0,0,1,8.47,8.47"/><path class="cls-66" d="M22.85,20a8.48,8.48,0,1,1-8.47-8.48A8.47,8.47,0,0,1,22.85,20"/><path class="cls-67" d="M22.94,19.89a8.47,8.47,0,1,1-8.47-8.47,8.48,8.48,0,0,1,8.47,8.47"/><path class="cls-68" d="M23,19.75a8.47,8.47,0,1,1-8.47-8.47A8.48,8.48,0,0,1,23,19.75"/><path class="cls-69" d="M23.12,19.61a8.47,8.47,0,1,1-8.47-8.48,8.47,8.47,0,0,1,8.47,8.48"/><path class="cls-70" d="M23.21,19.47A8.47,8.47,0,1,1,14.74,11a8.47,8.47,0,0,1,8.47,8.48"/><path class="cls-71" d="M23.31,19.32a8.48,8.48,0,1,1-8.48-8.47,8.48,8.48,0,0,1,8.48,8.47"/><path class="cls-72" d="M23.4,19.18a8.48,8.48,0,1,1-8.48-8.47,8.48,8.48,0,0,1,8.48,8.47"/><path class="cls-73" d="M23.49,19A8.48,8.48,0,1,1,15,10.56,8.48,8.48,0,0,1,23.49,19"/><path class="cls-74" d="M23.58,18.89a8.48,8.48,0,1,1-8.48-8.47,8.48,8.48,0,0,1,8.48,8.47"/><path class="cls-75" d="M23.67,18.75a8.48,8.48,0,1,1-8.48-8.47,8.48,8.48,0,0,1,8.48,8.47"/><path class="cls-76" d="M23.76,18.61a8.48,8.48,0,1,1-8.47-8.47,8.47,8.47,0,0,1,8.47,8.47"/><path class="cls-77" d="M23.85,18.47A8.48,8.48,0,1,1,15.38,10a8.47,8.47,0,0,1,8.47,8.48"/><path class="cls-78" d="M23.94,18.32a8.47,8.47,0,1,1-8.47-8.47,8.48,8.48,0,0,1,8.47,8.47"/><path class="cls-79" d="M24,18.18a8.47,8.47,0,1,1-8.47-8.47A8.48,8.48,0,0,1,24,18.18"/><path class="cls-80" d="M24.12,18a8.47,8.47,0,1,1-8.47-8.48A8.47,8.47,0,0,1,24.12,18"/><path class="cls-81" d="M24.21,17.9a8.47,8.47,0,1,1-8.47-8.48,8.47,8.47,0,0,1,8.47,8.48"/><path class="cls-82" d="M24.3,17.75a8.47,8.47,0,1,1-8.47-8.47,8.48,8.48,0,0,1,8.47,8.47"/><path class="cls-83" d="M24.4,17.61a8.48,8.48,0,1,1-8.48-8.47,8.48,8.48,0,0,1,8.48,8.47"/><path class="cls-84" d="M24.49,17.47A8.48,8.48,0,1,1,16,9a8.48,8.48,0,0,1,8.48,8.48"/><path class="cls-85" d="M24.58,17.32A8.48,8.48,0,1,1,16.1,8.85a8.48,8.48,0,0,1,8.48,8.47"/><path class="cls-86" d="M24.67,17.18a8.48,8.48,0,1,1-8.48-8.47,8.48,8.48,0,0,1,8.48,8.47"/><path class="cls-87" d="M24.76,17a8.48,8.48,0,1,1-8.48-8.47A8.47,8.47,0,0,1,24.76,17"/><path class="cls-88" d="M24.85,16.9a8.48,8.48,0,1,1-8.47-8.48,8.47,8.47,0,0,1,8.47,8.48"/><path class="cls-89" d="M24.94,16.75a8.48,8.48,0,1,1-8.47-8.47,8.48,8.48,0,0,1,8.47,8.47"/><path class="cls-90" d="M25,16.61a8.48,8.48,0,1,1-8.47-8.47A8.47,8.47,0,0,1,25,16.61"/><path class="cls-91" d="M25.12,16.47A8.47,8.47,0,1,1,16.65,8a8.47,8.47,0,0,1,8.47,8.48"/><path class="cls-92" d="M25.21,16.33a8.47,8.47,0,1,1-8.47-8.48,8.47,8.47,0,0,1,8.47,8.48"/><path class="cls-93" d="M25.3,16.18a8.47,8.47,0,1,1-8.47-8.47,8.48,8.48,0,0,1,8.47,8.47"/><path class="cls-94" d="M25.39,16a8.47,8.47,0,1,1-8.47-8.47A8.47,8.47,0,0,1,25.39,16"/><path class="cls-95" d="M25.49,15.9A8.48,8.48,0,1,1,17,7.42a8.48,8.48,0,0,1,8.48,8.48"/><path class="cls-96" d="M25.58,15.75A8.48,8.48,0,1,1,17.1,7.28a8.48,8.48,0,0,1,8.48,8.47"/><path class="cls-97" d="M25.67,15.61a8.48,8.48,0,1,1-8.48-8.47,8.48,8.48,0,0,1,8.48,8.47"/><path class="cls-98" d="M25.76,15.47A8.48,8.48,0,1,1,17.28,7a8.48,8.48,0,0,1,8.48,8.47"/><path class="cls-99" d="M25.85,15.33a8.48,8.48,0,1,1-8.47-8.48,8.47,8.47,0,0,1,8.47,8.48"/><path class="cls-100" d="M25.94,15.18a8.48,8.48,0,1,1-8.47-8.47,8.48,8.48,0,0,1,8.47,8.47"/><path class="cls-101" d="M26,15a8.48,8.48,0,1,1-8.47-8.47A8.47,8.47,0,0,1,26,15"/><path class="cls-102" d="M26.12,14.9a8.48,8.48,0,1,1-8.47-8.48,8.47,8.47,0,0,1,8.47,8.48"/><path class="cls-103" d="M26.21,14.76a8.47,8.47,0,1,1-8.47-8.48,8.47,8.47,0,0,1,8.47,8.48"/><path class="cls-104" d="M26.3,14.61a8.47,8.47,0,1,1-8.47-8.47,8.48,8.48,0,0,1,8.47,8.47"/><path class="cls-105" d="M26.39,14.47A8.47,8.47,0,1,1,17.92,6a8.47,8.47,0,0,1,8.47,8.47"/><path class="cls-106" d="M26.49,14.33A8.48,8.48,0,1,1,18,5.85a8.48,8.48,0,0,1,8.48,8.48"/><path class="cls-107" d="M26.58,14.18A8.48,8.48,0,1,1,18.1,5.71a8.48,8.48,0,0,1,8.48,8.47"/><path class="cls-108" d="M26.67,14a8.48,8.48,0,1,1-8.48-8.47A8.48,8.48,0,0,1,26.67,14"/><path class="cls-109" d="M26.76,13.9a8.48,8.48,0,1,1-8.48-8.48,8.48,8.48,0,0,1,8.48,8.48"/><path class="cls-110" d="M26.85,13.76a8.48,8.48,0,1,1-8.48-8.48,8.47,8.47,0,0,1,8.48,8.48"/><path class="cls-111" d="M26.94,13.61a8.48,8.48,0,1,1-8.47-8.47,8.48,8.48,0,0,1,8.47,8.47"/><path class="cls-112" d="M27,13.47A8.48,8.48,0,1,1,18.56,5,8.47,8.47,0,0,1,27,13.47"/><path class="cls-113" d="M27.12,13.33a8.48,8.48,0,1,1-8.47-8.48,8.47,8.47,0,0,1,8.47,8.48"/><path class="cls-114" d="M27.21,13.18a8.48,8.48,0,1,1-8.47-8.47,8.48,8.48,0,0,1,8.47,8.47"/><path class="cls-115" d="M27.3,13a8.47,8.47,0,1,1-8.47-8.47A8.48,8.48,0,0,1,27.3,13"/><path class="cls-116" d="M27.39,12.9a8.47,8.47,0,1,1-8.47-8.48,8.47,8.47,0,0,1,8.47,8.48"/><path class="cls-117" d="M27.48,12.76A8.47,8.47,0,1,1,19,4.28a8.47,8.47,0,0,1,8.47,8.48"/><path class="cls-118" d="M27.57,12.61A8.47,8.47,0,1,1,19.1,4.14a8.48,8.48,0,0,1,8.47,8.47"/><path class="cls-119" d="M27.67,12.47A8.48,8.48,0,1,1,19.19,4a8.48,8.48,0,0,1,8.48,8.47"/><path class="cls-120" d="M27.76,12.33a8.48,8.48,0,1,1-8.48-8.48,8.48,8.48,0,0,1,8.48,8.48"/><path class="cls-121" d="M27.85,12.18a8.48,8.48,0,1,1-8.48-8.47,8.48,8.48,0,0,1,8.48,8.47"/><path class="cls-122" d="M27.94,12a8.48,8.48,0,1,1-8.48-8.47A8.48,8.48,0,0,1,27.94,12"/><path class="cls-123" d="M28,11.9a8.48,8.48,0,1,1-8.47-8.47A8.47,8.47,0,0,1,28,11.9"/><path class="cls-124" d="M28.12,11.76a8.48,8.48,0,1,1-8.47-8.48,8.47,8.47,0,0,1,8.47,8.48"/><path class="cls-125" d="M28.21,11.61a8.48,8.48,0,1,1-8.47-8.47,8.48,8.48,0,0,1,8.47,8.47"/><path class="cls-126" d="M28.3,11.47A8.48,8.48,0,1,1,19.83,3a8.48,8.48,0,0,1,8.47,8.47"/><path class="cls-127" d="M28.39,11.33a8.47,8.47,0,1,1-8.47-8.48,8.47,8.47,0,0,1,8.47,8.48"/><path class="cls-128" d="M28.48,11.19A8.47,8.47,0,1,1,20,2.71a8.47,8.47,0,0,1,8.47,8.48"/><path class="cls-129" d="M28.57,11A8.47,8.47,0,1,1,20.1,2.57,8.48,8.48,0,0,1,28.57,11"/><path class="cls-130" d="M28.67,10.9a8.48,8.48,0,1,1-8.48-8.47,8.48,8.48,0,0,1,8.48,8.47"/><path class="cls-131" d="M28.76,10.76a8.48,8.48,0,1,1-8.48-8.48,8.48,8.48,0,0,1,8.48,8.48"/><path class="cls-132" d="M28.85,10.61a8.48,8.48,0,1,1-8.48-8.47,8.48,8.48,0,0,1,8.48,8.47"/><path class="cls-133" d="M28.94,10.47A8.48,8.48,0,1,1,20.46,2a8.48,8.48,0,0,1,8.48,8.47"/><path class="cls-134" d="M29,10.33a8.48,8.48,0,1,1-8.48-8.47A8.47,8.47,0,0,1,29,10.33"/><path class="cls-135" d="M29.12,10.19a8.48,8.48,0,1,1-8.47-8.48,8.47,8.47,0,0,1,8.47,8.48"/><path class="cls-136" d="M29.21,10a8.48,8.48,0,1,1-8.47-8.47A8.48,8.48,0,0,1,29.21,10"/><path class="cls-137" d="M29.3,9.9a8.47,8.47,0,1,1-8.47-8.47A8.47,8.47,0,0,1,29.3,9.9"/><path class="cls-138" d="M29.39,9.76a8.47,8.47,0,1,1-8.47-8.48,8.47,8.47,0,0,1,8.47,8.48"/><path class="cls-139" d="M29.48,9.62A8.47,8.47,0,1,1,21,1.14a8.47,8.47,0,0,1,8.47,8.48"/><path class="cls-140" d="M29.57,9.47A8.47,8.47,0,1,1,21.1,1a8.48,8.48,0,0,1,8.47,8.47"/><path class="cls-141" d="M29.66,9.33A8.47,8.47,0,1,1,21.19.86a8.47,8.47,0,0,1,8.47,8.47"/><path class="cls-142" d="M29.76,9.19A8.48,8.48,0,1,1,21.28.71a8.48,8.48,0,0,1,8.48,8.48"/><path class="cls-143" d="M29.85,9A8.48,8.48,0,1,1,21.37.57,8.48,8.48,0,0,1,29.85,9"/><path class="cls-144" d="M29.94,8.9A8.48,8.48,0,1,1,21.46.43,8.48,8.48,0,0,1,29.94,8.9"/><path class="cls-145" d="M30,8.76A8.48,8.48,0,1,1,21.55.29,8.48,8.48,0,0,1,30,8.76"/><path class="cls-146" d="M30.12,8.62A8.48,8.48,0,1,1,21.64.14a8.47,8.47,0,0,1,8.48,8.48"/><path class="cls-147" d="M30.21,8.47A8.48,8.48,0,1,1,21.74,0a8.48,8.48,0,0,1,8.47,8.47"/><path class="cls-146" d="M30.3,8.62A8.48,8.48,0,1,1,21.83.14,8.47,8.47,0,0,1,30.3,8.62"/><path class="cls-145" d="M30.39,8.76A8.47,8.47,0,1,1,21.92.29a8.47,8.47,0,0,1,8.47,8.47"/><path class="cls-144" d="M30.48,8.9A8.47,8.47,0,1,1,22,.43,8.48,8.48,0,0,1,30.48,8.9"/><path class="cls-143" d="M30.57,9A8.47,8.47,0,1,1,22.1.57,8.47,8.47,0,0,1,30.57,9"/><path class="cls-142" d="M30.66,9.19A8.47,8.47,0,1,1,22.19.71a8.47,8.47,0,0,1,8.47,8.48"/><path class="cls-141" d="M30.75,9.33A8.47,8.47,0,1,1,22.28.86a8.47,8.47,0,0,1,8.47,8.47"/><path class="cls-140" d="M30.85,9.47A8.48,8.48,0,1,1,22.37,1a8.48,8.48,0,0,1,8.48,8.47"/><path class="cls-139" d="M30.94,9.62a8.48,8.48,0,1,1-8.48-8.48,8.48,8.48,0,0,1,8.48,8.48"/><path class="cls-138" d="M31,9.76a8.48,8.48,0,1,1-8.48-8.48A8.48,8.48,0,0,1,31,9.76"/><path class="cls-137" d="M31.12,9.9a8.48,8.48,0,1,1-8.48-8.47A8.48,8.48,0,0,1,31.12,9.9"/><path class="cls-136" d="M31.21,10a8.48,8.48,0,1,1-8.48-8.47A8.48,8.48,0,0,1,31.21,10"/><path class="cls-135" d="M31.3,10.19a8.48,8.48,0,1,1-8.47-8.48,8.47,8.47,0,0,1,8.47,8.48"/><path class="cls-134" d="M31.39,10.33a8.48,8.48,0,1,1-8.47-8.47,8.47,8.47,0,0,1,8.47,8.47"/><path class="cls-133" d="M31.48,10.47A8.48,8.48,0,1,1,23,2a8.48,8.48,0,0,1,8.47,8.47"/><path class="cls-132" d="M31.57,10.61A8.47,8.47,0,1,1,23.1,2.14a8.47,8.47,0,0,1,8.47,8.47"/><path class="cls-131" d="M31.66,10.76a8.47,8.47,0,1,1-8.47-8.48,8.47,8.47,0,0,1,8.47,8.48"/><path class="cls-130" d="M31.75,10.9a8.47,8.47,0,1,1-8.47-8.47,8.47,8.47,0,0,1,8.47,8.47"/><path class="cls-129" d="M31.84,11a8.47,8.47,0,1,1-8.47-8.47A8.48,8.48,0,0,1,31.84,11"/><path class="cls-128" d="M31.94,11.19a8.48,8.48,0,1,1-8.48-8.48,8.48,8.48,0,0,1,8.48,8.48"/><path class="cls-127" d="M32,11.33a8.48,8.48,0,1,1-8.48-8.48A8.48,8.48,0,0,1,32,11.33"/><path class="cls-126" d="M32.12,11.47A8.48,8.48,0,1,1,23.64,3a8.48,8.48,0,0,1,8.48,8.47"/><path class="cls-125" d="M32.21,11.61a8.48,8.48,0,1,1-8.48-8.47,8.48,8.48,0,0,1,8.48,8.47"/><path class="cls-124" d="M32.3,11.76a8.48,8.48,0,1,1-8.48-8.48,8.47,8.47,0,0,1,8.48,8.48"/><path class="cls-123" d="M32.39,11.9a8.48,8.48,0,1,1-8.47-8.47,8.47,8.47,0,0,1,8.47,8.47"/><path class="cls-122" d="M32.48,12A8.48,8.48,0,1,1,24,3.57,8.48,8.48,0,0,1,32.48,12"/><path class="cls-121" d="M32.57,12.18A8.47,8.47,0,1,1,24.1,3.71a8.47,8.47,0,0,1,8.47,8.47"/><path class="cls-120" d="M32.66,12.33a8.47,8.47,0,1,1-8.47-8.48,8.47,8.47,0,0,1,8.47,8.48"/><path class="cls-119" d="M32.75,12.47A8.47,8.47,0,1,1,24.28,4a8.48,8.48,0,0,1,8.47,8.47"/><path class="cls-118" d="M32.84,12.61a8.47,8.47,0,1,1-8.47-8.47,8.48,8.48,0,0,1,8.47,8.47"/><path class="cls-117" d="M32.93,12.76a8.47,8.47,0,1,1-8.47-8.48,8.47,8.47,0,0,1,8.47,8.48"/><path class="cls-116" d="M33,12.9a8.48,8.48,0,1,1-8.48-8.48A8.48,8.48,0,0,1,33,12.9"/><path class="cls-115" d="M33.12,13a8.48,8.48,0,1,1-8.48-8.47A8.48,8.48,0,0,1,33.12,13"/><path class="cls-114" d="M33.21,13.18a8.48,8.48,0,1,1-8.48-8.47,8.48,8.48,0,0,1,8.48,8.47"/><path class="cls-113" d="M33.3,13.33a8.48,8.48,0,1,1-8.48-8.48,8.48,8.48,0,0,1,8.48,8.48"/><path class="cls-112" d="M33.39,13.47A8.48,8.48,0,1,1,24.92,5a8.47,8.47,0,0,1,8.47,8.47"/><path class="cls-111" d="M33.48,13.61A8.48,8.48,0,1,1,25,5.14a8.48,8.48,0,0,1,8.47,8.47"/><path class="cls-110" d="M33.57,13.76A8.48,8.48,0,1,1,25.1,5.28a8.47,8.47,0,0,1,8.47,8.48"/><path class="cls-109" d="M33.66,13.9a8.48,8.48,0,1,1-8.47-8.48,8.47,8.47,0,0,1,8.47,8.48"/><path class="cls-108" d="M33.75,14a8.47,8.47,0,1,1-8.47-8.47A8.48,8.48,0,0,1,33.75,14"/><path class="cls-107" d="M33.84,14.18a8.47,8.47,0,1,1-8.47-8.47,8.48,8.48,0,0,1,8.47,8.47"/><path class="cls-106" d="M33.93,14.33a8.47,8.47,0,1,1-8.47-8.48,8.47,8.47,0,0,1,8.47,8.48"/><path class="cls-105" d="M34,14.47A8.48,8.48,0,1,1,25.55,6,8.48,8.48,0,0,1,34,14.47"/><path class="cls-104" d="M34.12,14.61a8.48,8.48,0,1,1-8.48-8.47,8.48,8.48,0,0,1,8.48,8.47"/><path class="cls-103" d="M34.21,14.76a8.48,8.48,0,1,1-8.48-8.48,8.48,8.48,0,0,1,8.48,8.48"/><path class="cls-102" d="M34.3,14.9a8.48,8.48,0,1,1-8.48-8.48A8.48,8.48,0,0,1,34.3,14.9"/><path class="cls-101" d="M34.39,15a8.48,8.48,0,1,1-8.48-8.47A8.47,8.47,0,0,1,34.39,15"/><path class="cls-100" d="M34.48,15.18A8.48,8.48,0,1,1,26,6.71a8.48,8.48,0,0,1,8.47,8.47"/><path class="cls-99" d="M34.57,15.33A8.48,8.48,0,1,1,26.1,6.85a8.47,8.47,0,0,1,8.47,8.48"/><path class="cls-98" d="M34.66,15.47A8.48,8.48,0,1,1,26.19,7a8.47,8.47,0,0,1,8.47,8.47"/><path class="cls-97" d="M34.75,15.61a8.47,8.47,0,1,1-8.47-8.47,8.48,8.48,0,0,1,8.47,8.47"/><path class="cls-96" d="M34.84,15.75a8.47,8.47,0,1,1-8.47-8.47,8.48,8.48,0,0,1,8.47,8.47"/><path class="cls-95" d="M34.93,15.9a8.47,8.47,0,1,1-8.47-8.48,8.47,8.47,0,0,1,8.47,8.48"/><path class="cls-94" d="M35,16a8.47,8.47,0,1,1-8.47-8.47A8.47,8.47,0,0,1,35,16"/><path class="cls-93" d="M35.12,16.18a8.48,8.48,0,1,1-8.48-8.47,8.48,8.48,0,0,1,8.48,8.47"/><path class="cls-92" d="M35.21,16.33a8.48,8.48,0,1,1-8.48-8.48,8.48,8.48,0,0,1,8.48,8.48"/><path class="cls-91" d="M35.3,16.47A8.48,8.48,0,1,1,26.82,8a8.48,8.48,0,0,1,8.48,8.48"/><path class="cls-90" d="M35.39,16.61a8.48,8.48,0,1,1-8.48-8.47,8.48,8.48,0,0,1,8.48,8.47"/><path class="cls-89" d="M35.48,16.75A8.48,8.48,0,1,1,27,8.28a8.48,8.48,0,0,1,8.48,8.47"/><path class="cls-88" d="M35.57,16.9A8.48,8.48,0,1,1,27.1,8.42a8.47,8.47,0,0,1,8.47,8.48"/><path class="cls-87" d="M35.66,17a8.48,8.48,0,1,1-8.47-8.47A8.47,8.47,0,0,1,35.66,17"/><path class="cls-86" d="M35.75,17.18a8.48,8.48,0,1,1-8.47-8.47,8.48,8.48,0,0,1,8.47,8.47"/><path class="cls-85" d="M35.84,17.32a8.48,8.48,0,1,1-8.47-8.47,8.48,8.48,0,0,1,8.47,8.47"/><path class="cls-84" d="M35.93,17.47A8.47,8.47,0,1,1,27.46,9a8.47,8.47,0,0,1,8.47,8.48"/><path class="cls-83" d="M36,17.61a8.47,8.47,0,1,1-8.47-8.47A8.47,8.47,0,0,1,36,17.61"/><path class="cls-82" d="M36.11,17.75a8.47,8.47,0,1,1-8.47-8.47,8.48,8.48,0,0,1,8.47,8.47"/><path class="cls-81" d="M36.21,17.9a8.48,8.48,0,1,1-8.48-8.48,8.48,8.48,0,0,1,8.48,8.48"/><path class="cls-80" d="M36.3,18a8.48,8.48,0,1,1-8.48-8.48A8.48,8.48,0,0,1,36.3,18"/><path class="cls-79" d="M36.39,18.18a8.48,8.48,0,1,1-8.48-8.47,8.48,8.48,0,0,1,8.48,8.47"/><path class="cls-78" d="M36.48,18.32A8.48,8.48,0,1,1,28,9.85a8.48,8.48,0,0,1,8.48,8.47"/><path class="cls-77" d="M36.57,18.47A8.48,8.48,0,1,1,28.09,10a8.47,8.47,0,0,1,8.48,8.48"/><path class="cls-76" d="M36.66,18.61a8.48,8.48,0,1,1-8.47-8.47,8.47,8.47,0,0,1,8.47,8.47"/><path class="cls-75" d="M36.75,18.75a8.48,8.48,0,1,1-8.47-8.47,8.48,8.48,0,0,1,8.47,8.47"/><path class="cls-148" d="M36.84,18.89a8.48,8.48,0,1,1-8.47-8.47,8.48,8.48,0,0,1,8.47,8.47"/><path class="cls-73" d="M36.93,19a8.47,8.47,0,1,1-8.47-8.48A8.47,8.47,0,0,1,36.93,19"/><path class="cls-72" d="M37,19.18a8.47,8.47,0,1,1-8.47-8.47A8.47,8.47,0,0,1,37,19.18"/><path class="cls-71" d="M37.11,19.32a8.47,8.47,0,1,1-8.47-8.47,8.48,8.48,0,0,1,8.47,8.47"/><path class="cls-70" d="M37.2,19.47A8.47,8.47,0,1,1,28.73,11a8.47,8.47,0,0,1,8.47,8.48"/><path class="cls-69" d="M37.3,19.61a8.48,8.48,0,1,1-8.48-8.48,8.48,8.48,0,0,1,8.48,8.48"/><path class="cls-68" d="M37.39,19.75a8.48,8.48,0,1,1-8.48-8.47,8.48,8.48,0,0,1,8.48,8.47"/><path class="cls-67" d="M37.48,19.89A8.48,8.48,0,1,1,29,11.42a8.48,8.48,0,0,1,8.48,8.47"/><path class="cls-66" d="M37.57,20a8.48,8.48,0,1,1-8.48-8.48A8.47,8.47,0,0,1,37.57,20"/><path class="cls-65" d="M37.66,20.18a8.48,8.48,0,1,1-8.48-8.47,8.47,8.47,0,0,1,8.48,8.47"/><path class="cls-64" d="M37.75,20.32a8.48,8.48,0,1,1-8.47-8.47,8.48,8.48,0,0,1,8.47,8.47"/><path class="cls-63" d="M37.84,20.47A8.48,8.48,0,1,1,29.37,12a8.47,8.47,0,0,1,8.47,8.48"/><path class="cls-62" d="M37.93,20.61a8.47,8.47,0,1,1-8.47-8.48,8.47,8.47,0,0,1,8.47,8.48"/><path class="cls-61" d="M38,20.75a8.47,8.47,0,1,1-8.47-8.47A8.47,8.47,0,0,1,38,20.75"/><path class="cls-60" d="M38.11,20.89a8.47,8.47,0,1,1-8.47-8.47,8.48,8.48,0,0,1,8.47,8.47"/><path class="cls-59" d="M38.2,21a8.47,8.47,0,1,1-8.47-8.48A8.47,8.47,0,0,1,38.2,21"/><path class="cls-58" d="M38.29,21.18a8.47,8.47,0,1,1-8.47-8.47,8.47,8.47,0,0,1,8.47,8.47"/><path class="cls-57" d="M38.39,21.32a8.48,8.48,0,1,1-8.48-8.47,8.48,8.48,0,0,1,8.48,8.47"/><path class="cls-56" d="M38.48,21.46A8.48,8.48,0,1,1,30,13a8.48,8.48,0,0,1,8.48,8.47"/><path class="cls-55" d="M38.57,21.61a8.48,8.48,0,1,1-8.48-8.48,8.48,8.48,0,0,1,8.48,8.48"/><path class="cls-54" d="M38.66,21.75a8.48,8.48,0,1,1-8.48-8.47,8.48,8.48,0,0,1,8.48,8.47"/><path class="cls-53" d="M38.75,21.89a8.48,8.48,0,1,1-8.47-8.47,8.48,8.48,0,0,1,8.47,8.47"/><path class="cls-52" d="M38.84,22a8.48,8.48,0,1,1-8.47-8.48A8.47,8.47,0,0,1,38.84,22"/><path class="cls-51" d="M38.93,22.18a8.48,8.48,0,1,1-8.47-8.48,8.47,8.47,0,0,1,8.47,8.48"/><path class="cls-50" d="M39,22.32a8.48,8.48,0,1,1-8.47-8.47A8.47,8.47,0,0,1,39,22.32"/><path class="cls-49" d="M39.11,22.46A8.47,8.47,0,1,1,30.64,14a8.48,8.48,0,0,1,8.47,8.47"/><path class="cls-48" d="M39.2,22.61a8.47,8.47,0,1,1-8.47-8.48,8.47,8.47,0,0,1,8.47,8.48"/><path class="cls-47" d="M39.29,22.75a8.47,8.47,0,1,1-8.47-8.47,8.47,8.47,0,0,1,8.47,8.47"/><path class="cls-46" d="M39.39,22.89a8.48,8.48,0,1,1-8.48-8.47,8.48,8.48,0,0,1,8.48,8.47"/><path class="cls-45" d="M39.48,23A8.48,8.48,0,1,1,31,14.56,8.48,8.48,0,0,1,39.48,23"/><path class="cls-44" d="M39.57,23.18a8.48,8.48,0,1,1-8.48-8.48,8.48,8.48,0,0,1,8.48,8.48"/><path class="cls-43" d="M39.66,23.32a8.48,8.48,0,1,1-8.48-8.47,8.48,8.48,0,0,1,8.48,8.47"/><path class="cls-42" d="M39.75,23.46A8.48,8.48,0,1,1,31.27,15a8.48,8.48,0,0,1,8.48,8.47"/><path class="cls-41" d="M39.84,23.61a8.48,8.48,0,1,1-8.47-8.48,8.47,8.47,0,0,1,8.47,8.48"/><path class="cls-40" d="M39.93,23.75a8.48,8.48,0,1,1-8.47-8.48,8.47,8.47,0,0,1,8.47,8.48"/><path class="cls-39" d="M40,23.89a8.48,8.48,0,1,1-8.47-8.47A8.48,8.48,0,0,1,40,23.89"/><path class="cls-38" d="M40.11,24a8.47,8.47,0,1,1-8.47-8.47A8.48,8.48,0,0,1,40.11,24"/><path class="cls-37" d="M40.2,24.18a8.47,8.47,0,1,1-8.47-8.48,8.47,8.47,0,0,1,8.47,8.48"/><path class="cls-36" d="M40.29,24.32a8.47,8.47,0,1,1-8.47-8.47,8.47,8.47,0,0,1,8.47,8.47"/><path class="cls-35" d="M40.38,24.46A8.47,8.47,0,1,1,31.91,16a8.48,8.48,0,0,1,8.47,8.47"/><path class="cls-34" d="M40.48,24.6A8.48,8.48,0,1,1,32,16.13a8.48,8.48,0,0,1,8.48,8.47"/><path class="cls-33" d="M40.57,24.75a8.48,8.48,0,1,1-8.48-8.48,8.48,8.48,0,0,1,8.48,8.48"/><path class="cls-32" d="M40.66,24.89a8.48,8.48,0,1,1-8.48-8.47,8.48,8.48,0,0,1,8.48,8.47"/><path class="cls-31" d="M40.75,25a8.48,8.48,0,1,1-8.48-8.47A8.48,8.48,0,0,1,40.75,25"/><path class="cls-30" d="M40.84,25.18a8.48,8.48,0,1,1-8.48-8.48,8.47,8.47,0,0,1,8.48,8.48"/><path class="cls-29" d="M40.93,25.32a8.48,8.48,0,1,1-8.47-8.48,8.47,8.47,0,0,1,8.47,8.48"/><path class="cls-28" d="M41,25.46A8.48,8.48,0,1,1,32.55,17,8.48,8.48,0,0,1,41,25.46"/><path class="cls-27" d="M41.11,25.6a8.48,8.48,0,1,1-8.47-8.47,8.48,8.48,0,0,1,8.47,8.47"/><path class="cls-26" d="M41.2,25.75a8.47,8.47,0,1,1-8.47-8.48,8.47,8.47,0,0,1,8.47,8.48"/><path class="cls-25" d="M41.29,25.89a8.47,8.47,0,1,1-8.47-8.47,8.47,8.47,0,0,1,8.47,8.47"/><path class="cls-24" d="M41.38,26a8.47,8.47,0,1,1-8.47-8.47A8.48,8.48,0,0,1,41.38,26"/><path class="cls-23" d="M41.47,26.18A8.47,8.47,0,1,1,33,17.7a8.47,8.47,0,0,1,8.47,8.48"/><path class="cls-22" d="M41.57,26.32a8.48,8.48,0,1,1-8.48-8.48,8.48,8.48,0,0,1,8.48,8.48"/><path class="cls-21" d="M41.66,26.46A8.48,8.48,0,1,1,33.18,18a8.48,8.48,0,0,1,8.48,8.47"/><path class="cls-20" d="M41.75,26.6a8.48,8.48,0,1,1-8.48-8.47,8.48,8.48,0,0,1,8.48,8.47"/><path class="cls-19" d="M41.84,26.75a8.48,8.48,0,1,1-8.48-8.48,8.48,8.48,0,0,1,8.48,8.48"/><path class="cls-18" d="M41.93,26.89a8.48,8.48,0,1,1-8.48-8.47,8.47,8.47,0,0,1,8.48,8.47"/><path class="cls-17" d="M42,27a8.48,8.48,0,1,1-8.47-8.47A8.48,8.48,0,0,1,42,27"/><path class="cls-16" d="M42.11,27.18a8.48,8.48,0,1,1-8.47-8.48,8.47,8.47,0,0,1,8.47,8.48"/><path class="cls-15" d="M42.2,27.32a8.48,8.48,0,1,1-8.47-8.48,8.47,8.47,0,0,1,8.47,8.48"/><path class="cls-14" d="M42.29,27.46A8.47,8.47,0,1,1,33.82,19a8.47,8.47,0,0,1,8.47,8.47"/><path class="cls-13" d="M42.38,27.6a8.47,8.47,0,1,1-8.47-8.47,8.48,8.48,0,0,1,8.47,8.47"/><path class="cls-12" d="M42.47,27.75A8.47,8.47,0,1,1,34,19.27a8.47,8.47,0,0,1,8.47,8.48"/><path class="cls-11" d="M42.56,27.89a8.47,8.47,0,1,1-8.47-8.47,8.47,8.47,0,0,1,8.47,8.47"/><path class="cls-10" d="M42.66,28a8.48,8.48,0,1,1-8.48-8.47A8.48,8.48,0,0,1,42.66,28"/><path class="cls-9" d="M42.75,28.17a8.48,8.48,0,1,1-8.48-8.47,8.48,8.48,0,0,1,8.48,8.47"/><path class="cls-8" d="M42.84,28.32a8.48,8.48,0,1,1-8.48-8.48,8.48,8.48,0,0,1,8.48,8.48"/><path class="cls-7" d="M42.93,28.46A8.48,8.48,0,1,1,34.45,20a8.48,8.48,0,0,1,8.48,8.47"/><path class="cls-6" d="M43,28.6a8.48,8.48,0,1,1-8.48-8.47A8.48,8.48,0,0,1,43,28.6"/><path class="cls-5" d="M43.11,28.75a8.48,8.48,0,1,1-8.47-8.48,8.47,8.47,0,0,1,8.47,8.48"/><path class="cls-4" d="M43.2,28.89a8.48,8.48,0,1,1-8.47-8.48,8.47,8.47,0,0,1,8.47,8.48"/><path class="cls-3" d="M43.29,29a8.47,8.47,0,1,1-8.47-8.47A8.47,8.47,0,0,1,43.29,29"/><path class="cls-2" d="M43.38,29.17a8.47,8.47,0,1,1-8.47-8.47,8.48,8.48,0,0,1,8.47,8.47"/><path class="cls-1" d="M43.47,29.32A8.47,8.47,0,1,1,35,20.84a8.47,8.47,0,0,1,8.47,8.48"/><path class="cls-2" d="M43.56,29.17a8.47,8.47,0,1,1-8.47-8.47,8.48,8.48,0,0,1,8.47,8.47"/><path class="cls-3" d="M43.65,29a8.47,8.47,0,1,1-8.47-8.47A8.47,8.47,0,0,1,43.65,29"/><path class="cls-4" d="M43.75,28.89a8.48,8.48,0,1,1-8.48-8.48,8.48,8.48,0,0,1,8.48,8.48"/><path class="cls-5" d="M43.84,28.75a8.48,8.48,0,1,1-8.48-8.48,8.48,8.48,0,0,1,8.48,8.48"/><path class="cls-6" d="M43.93,28.6a8.48,8.48,0,1,1-8.48-8.47,8.48,8.48,0,0,1,8.48,8.47"/><path class="cls-7" d="M44,28.46A8.48,8.48,0,1,1,35.54,20,8.48,8.48,0,0,1,44,28.46"/><path class="cls-8" d="M44.11,28.32a8.48,8.48,0,1,1-8.47-8.48,8.47,8.47,0,0,1,8.47,8.48"/><path class="cls-9" d="M44.2,28.17a8.48,8.48,0,1,1-8.47-8.47,8.48,8.48,0,0,1,8.47,8.47"/><path class="cls-10" d="M44.29,28a8.48,8.48,0,1,1-8.47-8.47A8.48,8.48,0,0,1,44.29,28"/><path class="cls-11" d="M44.38,27.89a8.48,8.48,0,1,1-8.47-8.47,8.47,8.47,0,0,1,8.47,8.47"/><path class="cls-12" d="M44.47,27.75A8.47,8.47,0,1,1,36,19.27a8.47,8.47,0,0,1,8.47,8.48"/><path class="cls-13" d="M44.56,27.6a8.47,8.47,0,1,1-8.47-8.47,8.48,8.48,0,0,1,8.47,8.47"/><path class="cls-14" d="M44.65,27.46A8.47,8.47,0,1,1,36.18,19a8.47,8.47,0,0,1,8.47,8.47"/><path class="cls-15" d="M44.74,27.32a8.47,8.47,0,1,1-8.47-8.48,8.47,8.47,0,0,1,8.47,8.48"/><path class="cls-16" d="M44.84,27.18a8.48,8.48,0,1,1-8.48-8.48,8.48,8.48,0,0,1,8.48,8.48"/><path class="cls-17" d="M44.93,27a8.48,8.48,0,1,1-8.48-8.47A8.48,8.48,0,0,1,44.93,27"/><path class="cls-18" d="M45,26.89a8.48,8.48,0,1,1-8.48-8.47A8.48,8.48,0,0,1,45,26.89"/><path class="cls-19" d="M45.11,26.75a8.48,8.48,0,1,1-8.48-8.48,8.47,8.47,0,0,1,8.48,8.48"/><path class="cls-20" d="M45.2,26.6a8.48,8.48,0,1,1-8.48-8.47A8.48,8.48,0,0,1,45.2,26.6"/><path class="cls-21" d="M45.29,26.46A8.48,8.48,0,1,1,36.82,18a8.48,8.48,0,0,1,8.47,8.47"/><path class="cls-22" d="M45.38,26.32a8.48,8.48,0,1,1-8.47-8.48,8.47,8.47,0,0,1,8.47,8.48"/><path class="cls-23" d="M45.47,26.18A8.47,8.47,0,1,1,37,17.7a8.47,8.47,0,0,1,8.47,8.48"/><path class="cls-24" d="M45.56,26a8.47,8.47,0,1,1-8.47-8.47A8.48,8.48,0,0,1,45.56,26"/><path class="cls-25" d="M45.65,25.89a8.47,8.47,0,1,1-8.47-8.47,8.47,8.47,0,0,1,8.47,8.47"/><path class="cls-26" d="M45.74,25.75a8.47,8.47,0,1,1-8.47-8.48,8.47,8.47,0,0,1,8.47,8.48"/><path class="cls-27" d="M45.84,25.6a8.48,8.48,0,1,1-8.48-8.47,8.48,8.48,0,0,1,8.48,8.47"/><path class="cls-28" d="M45.93,25.46A8.48,8.48,0,1,1,37.45,17a8.48,8.48,0,0,1,8.48,8.47"/><path class="cls-29" d="M46,25.32a8.48,8.48,0,1,1-8.48-8.48A8.48,8.48,0,0,1,46,25.32"/><path class="cls-30" d="M46.11,25.18a8.48,8.48,0,1,1-8.48-8.48,8.48,8.48,0,0,1,8.48,8.48"/><path class="cls-31" d="M46.2,25a8.48,8.48,0,1,1-8.48-8.47A8.48,8.48,0,0,1,46.2,25"/><path class="cls-32" d="M46.29,24.89a8.48,8.48,0,1,1-8.47-8.47,8.48,8.48,0,0,1,8.47,8.47"/><path class="cls-33" d="M46.38,24.75a8.48,8.48,0,1,1-8.47-8.48,8.47,8.47,0,0,1,8.47,8.48"/><path class="cls-34" d="M46.47,24.6A8.48,8.48,0,1,1,38,16.13a8.47,8.47,0,0,1,8.47,8.47"/><path class="cls-35" d="M46.56,24.46A8.47,8.47,0,1,1,38.09,16a8.48,8.48,0,0,1,8.47,8.47"/><path class="cls-36" d="M46.65,24.32a8.47,8.47,0,1,1-8.47-8.47,8.47,8.47,0,0,1,8.47,8.47"/><path class="cls-37" d="M46.74,24.18a8.47,8.47,0,1,1-8.47-8.48,8.47,8.47,0,0,1,8.47,8.48"/><path class="cls-38" d="M46.83,24a8.47,8.47,0,1,1-8.47-8.47A8.48,8.48,0,0,1,46.83,24"/><path class="cls-39" d="M46.92,23.89a8.47,8.47,0,1,1-8.47-8.47,8.48,8.48,0,0,1,8.47,8.47"/><path class="cls-40" d="M47,23.75a8.48,8.48,0,1,1-8.48-8.48A8.48,8.48,0,0,1,47,23.75"/><path class="cls-41" d="M47.11,23.61a8.48,8.48,0,1,1-8.48-8.48,8.48,8.48,0,0,1,8.48,8.48"/><path class="cls-42" d="M47.2,23.46A8.48,8.48,0,1,1,38.72,15a8.48,8.48,0,0,1,8.48,8.47"/><path class="cls-43" d="M47.29,23.32a8.48,8.48,0,1,1-8.48-8.47,8.47,8.47,0,0,1,8.48,8.47"/><path class="cls-44" d="M47.38,23.18a8.48,8.48,0,1,1-8.47-8.48,8.47,8.47,0,0,1,8.47,8.48"/><path class="cls-45" d="M47.47,23A8.48,8.48,0,1,1,39,14.56,8.47,8.47,0,0,1,47.47,23"/><path class="cls-46" d="M47.56,22.89a8.48,8.48,0,1,1-8.47-8.47,8.48,8.48,0,0,1,8.47,8.47"/><path class="cls-47" d="M47.65,22.75a8.48,8.48,0,1,1-8.47-8.47,8.47,8.47,0,0,1,8.47,8.47"/><path class="cls-48" d="M47.74,22.61a8.47,8.47,0,1,1-8.47-8.48,8.47,8.47,0,0,1,8.47,8.48"/><path class="cls-49" d="M47.83,22.46A8.47,8.47,0,1,1,39.36,14a8.48,8.48,0,0,1,8.47,8.47"/><path class="cls-50" d="M47.92,22.32a8.47,8.47,0,1,1-8.47-8.47,8.47,8.47,0,0,1,8.47,8.47"/><path class="cls-51" d="M48,22.18a8.48,8.48,0,1,1-8.48-8.48A8.48,8.48,0,0,1,48,22.18"/><path class="cls-52" d="M48.11,22a8.48,8.48,0,1,1-8.48-8.48A8.48,8.48,0,0,1,48.11,22"/><path class="cls-53" d="M48.2,21.89a8.48,8.48,0,1,1-8.48-8.47,8.48,8.48,0,0,1,8.48,8.47"/><path class="cls-54" d="M48.29,21.75a8.48,8.48,0,1,1-8.48-8.47,8.48,8.48,0,0,1,8.48,8.47"/><path class="cls-55" d="M48.38,21.61a8.48,8.48,0,1,1-8.48-8.48,8.47,8.47,0,0,1,8.48,8.48"/><path class="cls-56" d="M48.47,21.46A8.48,8.48,0,1,1,40,13a8.47,8.47,0,0,1,8.47,8.47"/><path class="cls-57" d="M48.56,21.32a8.48,8.48,0,1,1-8.47-8.47,8.48,8.48,0,0,1,8.47,8.47"/><path class="cls-58" d="M48.65,21.18a8.47,8.47,0,1,1-8.47-8.47,8.47,8.47,0,0,1,8.47,8.47"/><path class="cls-59" d="M48.74,21a8.47,8.47,0,1,1-8.47-8.48A8.47,8.47,0,0,1,48.74,21"/><path class="cls-60" d="M48.83,20.89a8.47,8.47,0,1,1-8.47-8.47,8.48,8.48,0,0,1,8.47,8.47"/><path class="cls-61" d="M48.92,20.75a8.47,8.47,0,1,1-8.47-8.47,8.47,8.47,0,0,1,8.47,8.47"/><path class="cls-62" d="M49,20.61a8.47,8.47,0,1,1-8.47-8.48A8.47,8.47,0,0,1,49,20.61"/><path class="cls-63" d="M49.11,20.47A8.48,8.48,0,1,1,40.63,12a8.48,8.48,0,0,1,8.48,8.48"/><path class="cls-64" d="M49.2,20.32a8.48,8.48,0,1,1-8.48-8.47,8.48,8.48,0,0,1,8.48,8.47"/><path class="cls-65" d="M49.29,20.18a8.48,8.48,0,1,1-8.48-8.47,8.48,8.48,0,0,1,8.48,8.47"/><path class="cls-66" d="M49.38,20a8.48,8.48,0,1,1-8.48-8.48A8.48,8.48,0,0,1,49.38,20"/><path class="cls-67" d="M49.47,19.89A8.48,8.48,0,1,1,41,11.42a8.48,8.48,0,0,1,8.48,8.47"/><path class="cls-68" d="M49.56,19.75a8.48,8.48,0,1,1-8.47-8.47,8.48,8.48,0,0,1,8.47,8.47"/><path class="cls-69" d="M49.65,19.61a8.48,8.48,0,1,1-8.47-8.48,8.47,8.47,0,0,1,8.47,8.48"/><path class="cls-70" d="M49.74,19.47A8.48,8.48,0,1,1,41.27,11a8.47,8.47,0,0,1,8.47,8.48"/><path class="cls-71" d="M49.83,19.32a8.47,8.47,0,1,1-8.47-8.47,8.48,8.48,0,0,1,8.47,8.47"/><path class="cls-72" d="M49.92,19.18a8.47,8.47,0,1,1-8.47-8.47,8.47,8.47,0,0,1,8.47,8.47"/><path class="cls-73" d="M50,19a8.47,8.47,0,1,1-8.47-8.48A8.47,8.47,0,0,1,50,19"/><path class="cls-74" d="M50.1,18.89a8.47,8.47,0,1,1-8.47-8.47,8.48,8.48,0,0,1,8.47,8.47"/><path class="cls-75" d="M50.2,18.75a8.48,8.48,0,1,1-8.48-8.47,8.48,8.48,0,0,1,8.48,8.47"/><path class="cls-76" d="M50.29,18.61a8.48,8.48,0,1,1-8.48-8.47,8.48,8.48,0,0,1,8.48,8.47"/><path class="cls-77" d="M50.38,18.47A8.48,8.48,0,1,1,41.9,10a8.48,8.48,0,0,1,8.48,8.48"/><path class="cls-78" d="M50.47,18.32A8.48,8.48,0,1,1,42,9.85a8.48,8.48,0,0,1,8.48,8.47"/><path class="cls-79" d="M50.56,18.18a8.48,8.48,0,1,1-8.48-8.47,8.48,8.48,0,0,1,8.48,8.47"/><path class="cls-80" d="M50.65,18a8.48,8.48,0,1,1-8.47-8.48A8.47,8.47,0,0,1,50.65,18"/><path class="cls-81" d="M50.74,17.9a8.48,8.48,0,1,1-8.47-8.48,8.47,8.47,0,0,1,8.47,8.48"/><path class="cls-82" d="M50.83,17.75a8.47,8.47,0,1,1-8.47-8.47,8.48,8.48,0,0,1,8.47,8.47"/><path class="cls-83" d="M50.92,17.61a8.47,8.47,0,1,1-8.47-8.47,8.47,8.47,0,0,1,8.47,8.47"/><path class="cls-84" d="M51,17.47A8.47,8.47,0,1,1,42.54,9,8.47,8.47,0,0,1,51,17.47"/><path class="cls-85" d="M51.1,17.32a8.47,8.47,0,1,1-8.47-8.47,8.48,8.48,0,0,1,8.47,8.47"/><path class="cls-86" d="M51.19,17.18a8.47,8.47,0,1,1-8.47-8.47,8.48,8.48,0,0,1,8.47,8.47"/><path class="cls-87" d="M51.29,17a8.48,8.48,0,1,1-8.48-8.47A8.48,8.48,0,0,1,51.29,17"/><path class="cls-88" d="M51.38,16.9A8.48,8.48,0,1,1,42.9,8.42a8.48,8.48,0,0,1,8.48,8.48"/><path class="cls-89" d="M51.47,16.75A8.48,8.48,0,1,1,43,8.28a8.48,8.48,0,0,1,8.48,8.47"/><path class="cls-90" d="M51.56,16.61a8.48,8.48,0,1,1-8.48-8.47,8.47,8.47,0,0,1,8.48,8.47"/><path class="cls-91" d="M51.65,16.47A8.48,8.48,0,1,1,43.18,8a8.47,8.47,0,0,1,8.47,8.48"/><path class="cls-92" d="M51.74,16.33a8.48,8.48,0,1,1-8.47-8.48,8.47,8.47,0,0,1,8.47,8.48"/><path class="cls-93" d="M51.83,16.18a8.48,8.48,0,1,1-8.47-8.47,8.48,8.48,0,0,1,8.47,8.47"/><path class="cls-94" d="M51.92,16a8.48,8.48,0,1,1-8.47-8.47A8.47,8.47,0,0,1,51.92,16"/><path class="cls-95" d="M52,15.9a8.47,8.47,0,1,1-8.47-8.48A8.47,8.47,0,0,1,52,15.9"/><path class="cls-96" d="M52.1,15.75a8.47,8.47,0,1,1-8.47-8.47,8.48,8.48,0,0,1,8.47,8.47"/><path class="cls-97" d="M52.19,15.61a8.47,8.47,0,1,1-8.47-8.47,8.48,8.48,0,0,1,8.47,8.47"/><path class="cls-98" d="M52.28,15.47A8.47,8.47,0,1,1,43.81,7a8.47,8.47,0,0,1,8.47,8.47"/><path class="cls-99" d="M52.38,15.33A8.48,8.48,0,1,1,43.9,6.85a8.48,8.48,0,0,1,8.48,8.48"/><path class="cls-100" d="M52.47,15.18A8.48,8.48,0,1,1,44,6.71a8.48,8.48,0,0,1,8.48,8.47"/><path class="cls-101" d="M52.56,15a8.48,8.48,0,1,1-8.48-8.47A8.48,8.48,0,0,1,52.56,15"/><path class="cls-102" d="M52.65,14.9a8.48,8.48,0,1,1-8.48-8.48,8.47,8.47,0,0,1,8.48,8.48"/><path class="cls-103" d="M52.74,14.76a8.48,8.48,0,1,1-8.48-8.48,8.47,8.47,0,0,1,8.48,8.48"/><path class="cls-104" d="M52.83,14.61a8.48,8.48,0,1,1-8.47-8.47,8.48,8.48,0,0,1,8.47,8.47"/><path class="cls-105" d="M52.92,14.47A8.48,8.48,0,1,1,44.45,6a8.47,8.47,0,0,1,8.47,8.47"/><path class="cls-106" d="M53,14.33a8.48,8.48,0,1,1-8.47-8.48A8.47,8.47,0,0,1,53,14.33"/><path class="cls-107" d="M53.1,14.18a8.47,8.47,0,1,1-8.47-8.47,8.48,8.48,0,0,1,8.47,8.47"/><path class="cls-108" d="M53.19,14a8.47,8.47,0,1,1-8.47-8.47A8.48,8.48,0,0,1,53.19,14"/><path class="cls-109" d="M53.28,13.9a8.47,8.47,0,1,1-8.47-8.48,8.47,8.47,0,0,1,8.47,8.48"/><path class="cls-110" d="M53.38,13.76A8.48,8.48,0,1,1,44.9,5.28a8.48,8.48,0,0,1,8.48,8.48"/><path class="cls-111" d="M53.47,13.61A8.48,8.48,0,1,1,45,5.14a8.48,8.48,0,0,1,8.48,8.47"/><path class="cls-112" d="M53.56,13.47A8.48,8.48,0,1,1,45.08,5a8.48,8.48,0,0,1,8.48,8.47"/><path class="cls-113" d="M53.65,13.33a8.48,8.48,0,1,1-8.48-8.48,8.48,8.48,0,0,1,8.48,8.48"/><path class="cls-114" d="M53.74,13.18a8.48,8.48,0,1,1-8.48-8.47,8.48,8.48,0,0,1,8.48,8.47"/><path class="cls-115" d="M53.83,13a8.48,8.48,0,1,1-8.47-8.47A8.48,8.48,0,0,1,53.83,13"/><path class="cls-116" d="M53.92,12.9a8.48,8.48,0,1,1-8.47-8.48,8.47,8.47,0,0,1,8.47,8.48"/><path class="cls-117" d="M54,12.76a8.48,8.48,0,1,1-8.47-8.48A8.47,8.47,0,0,1,54,12.76"/><path class="cls-118" d="M54.1,12.61a8.47,8.47,0,1,1-8.47-8.47,8.48,8.48,0,0,1,8.47,8.47"/><path class="cls-119" d="M54.19,12.47A8.47,8.47,0,1,1,45.72,4a8.48,8.48,0,0,1,8.47,8.47"/><path class="cls-120" d="M54.28,12.33a8.47,8.47,0,1,1-8.47-8.48,8.47,8.47,0,0,1,8.47,8.48"/><path class="cls-121" d="M54.37,12.18A8.47,8.47,0,1,1,45.9,3.71a8.47,8.47,0,0,1,8.47,8.47"/><path class="cls-122" d="M54.47,12A8.48,8.48,0,1,1,46,3.57,8.48,8.48,0,0,1,54.47,12"/><path class="cls-123" d="M54.56,11.9a8.48,8.48,0,1,1-8.48-8.47,8.48,8.48,0,0,1,8.48,8.47"/><path class="cls-124" d="M54.65,11.76a8.48,8.48,0,1,1-8.48-8.48,8.48,8.48,0,0,1,8.48,8.48"/><path class="cls-125" d="M54.74,11.61a8.48,8.48,0,1,1-8.48-8.47,8.48,8.48,0,0,1,8.48,8.47"/><path class="cls-126" d="M54.83,11.47A8.48,8.48,0,1,1,46.35,3a8.48,8.48,0,0,1,8.48,8.47"/><path class="cls-127" d="M54.92,11.33a8.48,8.48,0,1,1-8.47-8.48,8.47,8.47,0,0,1,8.47,8.48"/><path class="cls-128" d="M55,11.19a8.48,8.48,0,1,1-8.47-8.48A8.47,8.47,0,0,1,55,11.19"/><path class="cls-129" d="M55.1,11a8.48,8.48,0,1,1-8.47-8.47A8.48,8.48,0,0,1,55.1,11"/><path class="cls-130" d="M55.19,10.9a8.47,8.47,0,1,1-8.47-8.47,8.47,8.47,0,0,1,8.47,8.47"/><path class="cls-131" d="M55.28,10.76a8.47,8.47,0,1,1-8.47-8.48,8.47,8.47,0,0,1,8.47,8.48"/><path class="cls-132" d="M55.37,10.61A8.47,8.47,0,1,1,46.9,2.14a8.47,8.47,0,0,1,8.47,8.47"/><path class="cls-133" d="M55.46,10.47A8.47,8.47,0,1,1,47,2a8.48,8.48,0,0,1,8.47,8.47"/><path class="cls-134" d="M55.56,10.33a8.48,8.48,0,1,1-8.48-8.47,8.48,8.48,0,0,1,8.48,8.47"/><path class="cls-135" d="M55.65,10.19a8.48,8.48,0,1,1-8.48-8.48,8.48,8.48,0,0,1,8.48,8.48"/><path class="cls-136" d="M55.74,10a8.48,8.48,0,1,1-8.48-8.47A8.48,8.48,0,0,1,55.74,10"/><path class="cls-137" d="M55.83,9.9a8.48,8.48,0,1,1-8.48-8.47A8.48,8.48,0,0,1,55.83,9.9"/><path class="cls-138" d="M55.92,9.76a8.48,8.48,0,1,1-8.48-8.48,8.47,8.47,0,0,1,8.48,8.48"/><path class="cls-139" d="M56,9.62a8.48,8.48,0,1,1-8.47-8.48A8.47,8.47,0,0,1,56,9.62"/><path class="cls-140" d="M56.1,9.47A8.48,8.48,0,1,1,47.63,1,8.48,8.48,0,0,1,56.1,9.47"/><path class="cls-141" d="M56.19,9.33A8.47,8.47,0,1,1,47.72.86a8.47,8.47,0,0,1,8.47,8.47"/><path class="cls-142" d="M56.28,9.19A8.48,8.48,0,1,1,47.81.71a8.47,8.47,0,0,1,8.47,8.48"/><path class="cls-143" d="M56.37,9A8.47,8.47,0,1,1,47.9.57,8.47,8.47,0,0,1,56.37,9"/><path class="cls-144" d="M56.46,8.9A8.47,8.47,0,1,1,48,.43,8.48,8.48,0,0,1,56.46,8.9"/><path class="cls-145" d="M56.55,8.76A8.47,8.47,0,1,1,48.08.29a8.47,8.47,0,0,1,8.47,8.47"/><path class="cls-146" d="M56.65,8.62A8.48,8.48,0,1,1,48.17.14a8.48,8.48,0,0,1,8.48,8.48"/><path class="cls-147" d="M56.74,8.47A8.48,8.48,0,1,1,48.26,0a8.48,8.48,0,0,1,8.48,8.47"/><path class="cls-146" d="M56.83,8.62A8.48,8.48,0,1,1,48.35.14a8.48,8.48,0,0,1,8.48,8.48"/><path class="cls-145" d="M56.92,8.76A8.48,8.48,0,1,1,48.44.29a8.47,8.47,0,0,1,8.48,8.47"/><path class="cls-144" d="M57,8.9A8.48,8.48,0,1,1,48.53.43,8.48,8.48,0,0,1,57,8.9"/><path class="cls-143" d="M57.1,9A8.48,8.48,0,1,1,48.63.57,8.47,8.47,0,0,1,57.1,9"/><path class="cls-142" d="M57.19,9.19A8.48,8.48,0,1,1,48.72.71a8.47,8.47,0,0,1,8.47,8.48"/><path class="cls-141" d="M57.28,9.33A8.48,8.48,0,1,1,48.81.86a8.47,8.47,0,0,1,8.47,8.47"/><path class="cls-140" d="M57.37,9.47A8.47,8.47,0,1,1,48.9,1a8.48,8.48,0,0,1,8.47,8.47"/><path class="cls-139" d="M57.46,9.62A8.47,8.47,0,1,1,49,1.14a8.47,8.47,0,0,1,8.47,8.48"/><path class="cls-138" d="M57.55,9.76a8.47,8.47,0,1,1-8.47-8.48,8.47,8.47,0,0,1,8.47,8.48"/><path class="cls-137" d="M57.64,9.9a8.47,8.47,0,1,1-8.47-8.47A8.47,8.47,0,0,1,57.64,9.9"/><path class="cls-136" d="M57.74,10a8.48,8.48,0,1,1-8.48-8.47A8.48,8.48,0,0,1,57.74,10"/><path class="cls-135" d="M57.83,10.19a8.48,8.48,0,1,1-8.48-8.48,8.48,8.48,0,0,1,8.48,8.48"/><path class="cls-134" d="M57.92,10.33a8.48,8.48,0,1,1-8.48-8.47,8.48,8.48,0,0,1,8.48,8.47"/><path class="cls-133" d="M58,10.47A8.48,8.48,0,1,1,49.53,2,8.48,8.48,0,0,1,58,10.47"/><path class="cls-132" d="M58.1,10.61a8.48,8.48,0,1,1-8.48-8.47,8.47,8.47,0,0,1,8.48,8.47"/><path class="cls-131" d="M58.19,10.76a8.48,8.48,0,1,1-8.47-8.48,8.47,8.47,0,0,1,8.47,8.48"/><path class="cls-130" d="M58.28,10.9a8.48,8.48,0,1,1-8.47-8.47,8.47,8.47,0,0,1,8.47,8.47"/><path class="cls-129" d="M58.37,11A8.47,8.47,0,1,1,49.9,2.57,8.48,8.48,0,0,1,58.37,11"/><path class="cls-128" d="M58.46,11.19A8.47,8.47,0,1,1,50,2.71a8.47,8.47,0,0,1,8.47,8.48"/><path class="cls-127" d="M58.55,11.33a8.47,8.47,0,1,1-8.47-8.48,8.47,8.47,0,0,1,8.47,8.48"/><path class="cls-126" d="M58.64,11.47A8.47,8.47,0,1,1,50.17,3a8.48,8.48,0,0,1,8.47,8.47"/><path class="cls-125" d="M58.74,11.61a8.48,8.48,0,1,1-8.48-8.47,8.48,8.48,0,0,1,8.48,8.47"/><path class="cls-124" d="M58.83,11.76a8.48,8.48,0,1,1-8.48-8.48,8.48,8.48,0,0,1,8.48,8.48"/><path class="cls-123" d="M58.92,11.9a8.48,8.48,0,1,1-8.48-8.47,8.48,8.48,0,0,1,8.48,8.47"/><path class="cls-122" d="M59,12a8.48,8.48,0,1,1-8.48-8.47A8.48,8.48,0,0,1,59,12"/><path class="cls-121" d="M59.1,12.18a8.48,8.48,0,1,1-8.48-8.47,8.47,8.47,0,0,1,8.48,8.47"/><path class="cls-120" d="M59.19,12.33a8.48,8.48,0,1,1-8.47-8.48,8.47,8.47,0,0,1,8.47,8.48"/><path class="cls-119" d="M59.28,12.47A8.48,8.48,0,1,1,50.81,4a8.48,8.48,0,0,1,8.47,8.47"/><path class="cls-118" d="M59.37,12.61A8.48,8.48,0,1,1,50.9,4.14a8.48,8.48,0,0,1,8.47,8.47"/><path class="cls-117" d="M59.46,12.76A8.47,8.47,0,1,1,51,4.28a8.47,8.47,0,0,1,8.47,8.48"/><path class="cls-116" d="M59.55,12.9a8.47,8.47,0,1,1-8.47-8.48,8.47,8.47,0,0,1,8.47,8.48"/><path class="cls-115" d="M59.64,13a8.47,8.47,0,1,1-8.47-8.47A8.48,8.48,0,0,1,59.64,13"/><path class="cls-114" d="M59.73,13.18a8.47,8.47,0,1,1-8.47-8.47,8.48,8.48,0,0,1,8.47,8.47"/><path class="cls-113" d="M59.82,13.33a8.47,8.47,0,1,1-8.47-8.48,8.47,8.47,0,0,1,8.47,8.48"/><path class="cls-112" d="M59.92,13.47A8.48,8.48,0,1,1,51.44,5a8.48,8.48,0,0,1,8.48,8.47"/><path class="cls-111" d="M60,13.61a8.48,8.48,0,1,1-8.48-8.47A8.48,8.48,0,0,1,60,13.61"/><path class="cls-110" d="M60.1,13.76a8.48,8.48,0,1,1-8.48-8.48,8.48,8.48,0,0,1,8.48,8.48"/><path class="cls-109" d="M60.19,13.9a8.48,8.48,0,1,1-8.48-8.48,8.48,8.48,0,0,1,8.48,8.48"/><path class="cls-108" d="M60.28,14a8.48,8.48,0,1,1-8.47-8.47A8.48,8.48,0,0,1,60.28,14"/><path class="cls-107" d="M60.37,14.18A8.48,8.48,0,1,1,51.9,5.71a8.48,8.48,0,0,1,8.47,8.47"/><path class="cls-106" d="M60.46,14.33A8.48,8.48,0,1,1,52,5.85a8.47,8.47,0,0,1,8.47,8.48"/><path class="cls-105" d="M60.55,14.47A8.48,8.48,0,1,1,52.08,6a8.47,8.47,0,0,1,8.47,8.47"/><path class="cls-104" d="M60.64,14.61a8.47,8.47,0,1,1-8.47-8.47,8.48,8.48,0,0,1,8.47,8.47"/><path class="cls-103" d="M60.73,14.76a8.47,8.47,0,1,1-8.47-8.48,8.47,8.47,0,0,1,8.47,8.48"/><path class="cls-102" d="M60.82,14.9a8.47,8.47,0,1,1-8.47-8.48,8.47,8.47,0,0,1,8.47,8.48"/><path class="cls-101" d="M60.92,15a8.48,8.48,0,1,1-8.48-8.47A8.48,8.48,0,0,1,60.92,15"/><path class="cls-100" d="M61,15.18a8.48,8.48,0,1,1-8.48-8.47A8.48,8.48,0,0,1,61,15.18"/><path class="cls-99" d="M61.1,15.33a8.48,8.48,0,1,1-8.48-8.48,8.48,8.48,0,0,1,8.48,8.48"/><path class="cls-98" d="M61.19,15.47A8.48,8.48,0,1,1,52.71,7a8.48,8.48,0,0,1,8.48,8.47"/><path class="cls-97" d="M61.28,15.61A8.48,8.48,0,1,1,52.8,7.14a8.48,8.48,0,0,1,8.48,8.47"/><path class="cls-96" d="M61.37,15.75A8.48,8.48,0,1,1,52.9,7.28a8.48,8.48,0,0,1,8.47,8.47"/><path class="cls-95" d="M61.46,15.9A8.48,8.48,0,1,1,53,7.42a8.47,8.47,0,0,1,8.47,8.48"/><path class="cls-94" d="M61.55,16a8.47,8.47,0,1,1-8.47-8.47A8.47,8.47,0,0,1,61.55,16"/><path class="cls-93" d="M61.64,16.18a8.48,8.48,0,1,1-8.47-8.47,8.48,8.48,0,0,1,8.47,8.47"/><path class="cls-92" d="M61.73,16.33a8.47,8.47,0,1,1-8.47-8.48,8.47,8.47,0,0,1,8.47,8.48"/><path class="cls-91" d="M61.82,16.47A8.47,8.47,0,1,1,53.35,8a8.47,8.47,0,0,1,8.47,8.48"/><path class="cls-90" d="M61.91,16.61a8.47,8.47,0,1,1-8.47-8.47,8.47,8.47,0,0,1,8.47,8.47"/><path class="cls-89" d="M62,16.75a8.48,8.48,0,1,1-8.48-8.47A8.48,8.48,0,0,1,62,16.75"/><path class="cls-88" d="M62.1,16.9a8.48,8.48,0,1,1-8.48-8.48A8.48,8.48,0,0,1,62.1,16.9"/><path class="cls-87" d="M62.19,17a8.48,8.48,0,1,1-8.48-8.47A8.48,8.48,0,0,1,62.19,17"/><path class="cls-86" d="M62.28,17.18A8.48,8.48,0,1,1,53.8,8.71a8.48,8.48,0,0,1,8.48,8.47"/><path class="cls-85" d="M62.37,17.32a8.48,8.48,0,1,1-8.48-8.47,8.48,8.48,0,0,1,8.48,8.47"/><path class="cls-84" d="M62.46,17.47A8.48,8.48,0,1,1,54,9a8.47,8.47,0,0,1,8.47,8.48"/><path class="cls-83" d="M62.55,17.61a8.48,8.48,0,1,1-8.47-8.47,8.47,8.47,0,0,1,8.47,8.47"/><path class="cls-82" d="M62.64,17.75a8.47,8.47,0,1,1-8.47-8.47,8.48,8.48,0,0,1,8.47,8.47"/><path class="cls-81" d="M62.73,17.9a8.47,8.47,0,1,1-8.47-8.48,8.47,8.47,0,0,1,8.47,8.48"/><path class="cls-80" d="M62.82,18a8.47,8.47,0,1,1-8.47-8.48A8.47,8.47,0,0,1,62.82,18"/><path class="cls-79" d="M62.91,18.18a8.47,8.47,0,1,1-8.47-8.47,8.48,8.48,0,0,1,8.47,8.47"/><path class="cls-78" d="M63,18.32a8.47,8.47,0,1,1-8.47-8.47A8.48,8.48,0,0,1,63,18.32"/><path class="cls-77" d="M63.1,18.47A8.48,8.48,0,1,1,54.62,10a8.48,8.48,0,0,1,8.48,8.48"/><path class="cls-76" d="M63.19,18.61a8.48,8.48,0,1,1-8.48-8.47,8.48,8.48,0,0,1,8.48,8.47"/><path class="cls-75" d="M63.28,18.75a8.48,8.48,0,1,1-8.48-8.47,8.48,8.48,0,0,1,8.48,8.47"/><path class="cls-148" d="M63.37,18.89a8.48,8.48,0,1,1-8.48-8.47,8.48,8.48,0,0,1,8.48,8.47"/><path class="cls-73" d="M63.46,19A8.48,8.48,0,1,1,55,10.56,8.47,8.47,0,0,1,63.46,19"/><path class="cls-72" d="M63.55,19.18a8.48,8.48,0,1,1-8.47-8.47,8.47,8.47,0,0,1,8.47,8.47"/><path class="cls-71" d="M63.64,19.32a8.48,8.48,0,1,1-8.47-8.47,8.48,8.48,0,0,1,8.47,8.47"/><path class="cls-70" d="M63.73,19.47A8.48,8.48,0,1,1,55.26,11a8.47,8.47,0,0,1,8.47,8.48"/><path class="cls-69" d="M63.82,19.61a8.47,8.47,0,1,1-8.47-8.48,8.47,8.47,0,0,1,8.47,8.48"/><path class="cls-68" d="M63.91,19.75a8.47,8.47,0,1,1-8.47-8.47,8.48,8.48,0,0,1,8.47,8.47"/><path class="cls-67" d="M64,19.89a8.47,8.47,0,1,1-8.47-8.47A8.48,8.48,0,0,1,64,19.89"/><path class="cls-66" d="M64.09,20a8.47,8.47,0,1,1-8.47-8.48A8.47,8.47,0,0,1,64.09,20"/><path class="cls-65" d="M64.19,20.18a8.48,8.48,0,1,1-8.48-8.47,8.48,8.48,0,0,1,8.48,8.47"/><path class="cls-64" d="M64.28,20.32a8.48,8.48,0,1,1-8.48-8.47,8.48,8.48,0,0,1,8.48,8.47"/><path class="cls-63" d="M64.37,20.47A8.48,8.48,0,1,1,55.89,12a8.48,8.48,0,0,1,8.48,8.48"/><path class="cls-62" d="M64.46,20.61A8.48,8.48,0,1,1,56,12.13a8.47,8.47,0,0,1,8.48,8.48"/><path class="cls-61" d="M64.55,20.75a8.48,8.48,0,1,1-8.48-8.47,8.47,8.47,0,0,1,8.48,8.47"/><path class="cls-60" d="M64.64,20.89a8.48,8.48,0,1,1-8.47-8.47,8.48,8.48,0,0,1,8.47,8.47"/><path class="cls-59" d="M64.73,21a8.48,8.48,0,1,1-8.47-8.48A8.47,8.47,0,0,1,64.73,21"/><path class="cls-58" d="M64.82,21.18a8.47,8.47,0,1,1-8.47-8.47,8.47,8.47,0,0,1,8.47,8.47"/><path class="cls-57" d="M64.91,21.32a8.47,8.47,0,1,1-8.47-8.47,8.48,8.48,0,0,1,8.47,8.47"/><path class="cls-56" d="M65,21.46A8.47,8.47,0,1,1,56.53,13,8.47,8.47,0,0,1,65,21.46"/><path class="cls-55" d="M65.09,21.61a8.47,8.47,0,1,1-8.47-8.48,8.47,8.47,0,0,1,8.47,8.48"/><path class="cls-54" d="M65.18,21.75a8.47,8.47,0,1,1-8.47-8.47,8.47,8.47,0,0,1,8.47,8.47"/><path class="cls-53" d="M65.28,21.89a8.48,8.48,0,1,1-8.48-8.47,8.48,8.48,0,0,1,8.48,8.47"/><path class="cls-52" d="M65.37,22a8.48,8.48,0,1,1-8.48-8.48A8.48,8.48,0,0,1,65.37,22"/><path class="cls-51" d="M65.46,22.18A8.48,8.48,0,1,1,57,13.7a8.48,8.48,0,0,1,8.48,8.48"/><path class="cls-50" d="M65.55,22.32a8.48,8.48,0,1,1-8.48-8.47,8.48,8.48,0,0,1,8.48,8.47"/><path class="cls-49" d="M65.64,22.46A8.48,8.48,0,1,1,57.17,14a8.48,8.48,0,0,1,8.47,8.47"/><path class="cls-48" d="M65.73,22.61a8.48,8.48,0,1,1-8.47-8.48,8.47,8.47,0,0,1,8.47,8.48"/><path class="cls-47" d="M65.82,22.75a8.48,8.48,0,1,1-8.47-8.47,8.47,8.47,0,0,1,8.47,8.47"/><path class="cls-46" d="M65.91,22.89a8.48,8.48,0,1,1-8.47-8.47,8.48,8.48,0,0,1,8.47,8.47"/><path class="cls-45" d="M66,23a8.47,8.47,0,1,1-8.47-8.47A8.47,8.47,0,0,1,66,23"/><path class="cls-44" d="M66.09,23.18a8.47,8.47,0,1,1-8.47-8.48,8.47,8.47,0,0,1,8.47,8.48"/><path class="cls-43" d="M66.18,23.32a8.47,8.47,0,1,1-8.47-8.47,8.47,8.47,0,0,1,8.47,8.47"/><path class="cls-42" d="M66.28,23.46A8.48,8.48,0,1,1,57.8,15a8.48,8.48,0,0,1,8.48,8.47"/><path class="cls-41" d="M66.37,23.61a8.48,8.48,0,1,1-8.48-8.48,8.48,8.48,0,0,1,8.48,8.48"/><path class="cls-40" d="M66.46,23.75A8.48,8.48,0,1,1,58,15.27a8.48,8.48,0,0,1,8.48,8.48"/><path class="cls-39" d="M66.55,23.89a8.48,8.48,0,1,1-8.48-8.47,8.48,8.48,0,0,1,8.48,8.47"/><path class="cls-38" d="M66.64,24a8.48,8.48,0,1,1-8.48-8.47A8.48,8.48,0,0,1,66.64,24"/><path class="cls-37" d="M66.73,24.18a8.48,8.48,0,1,1-8.47-8.48,8.47,8.47,0,0,1,8.47,8.48"/><path class="cls-36" d="M66.82,24.32a8.48,8.48,0,1,1-8.47-8.47,8.47,8.47,0,0,1,8.47,8.47"/><path class="cls-35" d="M66.91,24.46A8.48,8.48,0,1,1,58.44,16a8.48,8.48,0,0,1,8.47,8.47"/><path class="cls-34" d="M67,24.6a8.48,8.48,0,1,1-8.47-8.47A8.47,8.47,0,0,1,67,24.6"/><path class="cls-33" d="M67.09,24.75a8.47,8.47,0,1,1-8.47-8.48,8.47,8.47,0,0,1,8.47,8.48"/><path class="cls-32" d="M67.18,24.89a8.47,8.47,0,1,1-8.47-8.47,8.48,8.48,0,0,1,8.47,8.47"/><path class="cls-31" d="M67.27,25a8.47,8.47,0,1,1-8.47-8.47A8.48,8.48,0,0,1,67.27,25"/><path class="cls-30" d="M67.37,25.18a8.48,8.48,0,1,1-8.48-8.48,8.48,8.48,0,0,1,8.48,8.48"/><path class="cls-29" d="M67.46,25.32A8.48,8.48,0,1,1,59,16.84a8.48,8.48,0,0,1,8.48,8.48"/><path class="cls-28" d="M67.55,25.46A8.48,8.48,0,1,1,59.07,17a8.48,8.48,0,0,1,8.48,8.47"/><path class="cls-27" d="M67.64,25.6a8.48,8.48,0,1,1-8.48-8.47,8.48,8.48,0,0,1,8.48,8.47"/><path class="cls-26" d="M67.73,25.75a8.48,8.48,0,1,1-8.48-8.48,8.47,8.47,0,0,1,8.48,8.48"/><path class="cls-25" d="M67.82,25.89a8.48,8.48,0,1,1-8.47-8.47,8.47,8.47,0,0,1,8.47,8.47"/><path class="cls-24" d="M67.91,26a8.48,8.48,0,1,1-8.47-8.47A8.48,8.48,0,0,1,67.91,26"/><path class="cls-23" d="M68,26.18a8.48,8.48,0,1,1-8.47-8.48A8.47,8.47,0,0,1,68,26.18"/><path class="cls-22" d="M68.09,26.32a8.47,8.47,0,1,1-8.47-8.48,8.47,8.47,0,0,1,8.47,8.48"/><path class="cls-21" d="M68.18,26.46A8.47,8.47,0,1,1,59.71,18a8.48,8.48,0,0,1,8.47,8.47"/><path class="cls-20" d="M68.27,26.6a8.47,8.47,0,1,1-8.47-8.47,8.48,8.48,0,0,1,8.47,8.47"/><path class="cls-19" d="M68.36,26.75a8.47,8.47,0,1,1-8.47-8.48,8.47,8.47,0,0,1,8.47,8.48"/><path class="cls-18" d="M68.46,26.89A8.48,8.48,0,1,1,60,18.42a8.48,8.48,0,0,1,8.48,8.47"/><path class="cls-17" d="M68.55,27a8.48,8.48,0,1,1-8.48-8.47A8.48,8.48,0,0,1,68.55,27"/><path class="cls-16" d="M68.64,27.18a8.48,8.48,0,1,1-8.48-8.48,8.48,8.48,0,0,1,8.48,8.48"/><path class="cls-15" d="M68.73,27.32a8.48,8.48,0,1,1-8.48-8.48,8.48,8.48,0,0,1,8.48,8.48"/><path class="cls-14" d="M68.82,27.46A8.48,8.48,0,1,1,60.34,19a8.47,8.47,0,0,1,8.48,8.47"/><path class="cls-13" d="M68.91,27.6a8.48,8.48,0,1,1-8.47-8.47,8.48,8.48,0,0,1,8.47,8.47"/><path class="cls-12" d="M69,27.75a8.48,8.48,0,1,1-8.47-8.48A8.47,8.47,0,0,1,69,27.75"/><path class="cls-11" d="M69.09,27.89a8.48,8.48,0,1,1-8.47-8.47,8.47,8.47,0,0,1,8.47,8.47"/><path class="cls-10" d="M69.18,28a8.47,8.47,0,1,1-8.47-8.47A8.48,8.48,0,0,1,69.18,28"/><path class="cls-9" d="M69.27,28.17A8.47,8.47,0,1,1,60.8,19.7a8.48,8.48,0,0,1,8.47,8.47"/><path class="cls-8" d="M69.36,28.32a8.47,8.47,0,1,1-8.47-8.48,8.47,8.47,0,0,1,8.47,8.48"/><path class="cls-7" d="M69.45,28.46A8.47,8.47,0,1,1,61,20a8.47,8.47,0,0,1,8.47,8.47"/><path class="cls-6" d="M69.55,28.6a8.48,8.48,0,1,1-8.48-8.47,8.48,8.48,0,0,1,8.48,8.47"/><path class="cls-5" d="M69.64,28.75a8.48,8.48,0,1,1-8.48-8.48,8.48,8.48,0,0,1,8.48,8.48"/><path class="cls-4" d="M69.73,28.89a8.48,8.48,0,1,1-8.48-8.48,8.48,8.48,0,0,1,8.48,8.48"/><path class="cls-3" d="M69.82,29a8.48,8.48,0,1,1-8.48-8.47A8.47,8.47,0,0,1,69.82,29"/><path class="cls-2" d="M69.91,29.17a8.48,8.48,0,1,1-8.48-8.47,8.48,8.48,0,0,1,8.48,8.47"/><path class="cls-1" d="M70,29.32a8.48,8.48,0,1,1-8.47-8.48A8.47,8.47,0,0,1,70,29.32"/><polygon class="cls-149" points="119.54 33.46 115.24 26.99 119.62 20.44 121.98 20.43 121.98 16.71 115.74 16.71 111.17 24.35 106.59 16.71 100.35 16.71 100.35 20.43 102.71 20.44 107.09 26.99 102.79 33.46 99.97 33.46 99.97 37.27 107.03 37.27 111.16 30.45 115.3 37.27 122.36 37.27 122.36 33.46 119.54 33.46"/><polygon class="cls-149" points="125.83 16.71 134.47 16.71 134.47 37.27 125.83 37.27 125.83 33.47 128.87 33.47 128.87 20.43 125.83 20.44 125.83 16.71"/><path class="cls-149" d="M138.68,31.18h3v3.27a4.62,4.62,0,0,0,1.21.25,14.65,14.65,0,0,0,1.61.1,6.77,6.77,0,0,0,3.6-.74,2.54,2.54,0,0,0,1.12-2.27,2,2,0,0,0-.78-1.64,7.07,7.07,0,0,0-2-1c-.78-.28-1.64-.55-2.57-.83a13.15,13.15,0,0,1-2.57-1.09,6.15,6.15,0,0,1-2-1.73,4.66,4.66,0,0,1-.78-2.82,5.22,5.22,0,0,1,1.9-4.36,8.3,8.3,0,0,1,5.07-1.58c.89,0,1.8.09,2.72.21a15.15,15.15,0,0,1,2.84.63l.95.3V23h-3.21l0-3a9,9,0,0,0-1.18-.28,9.17,9.17,0,0,0-1.86-.18,6.75,6.75,0,0,0-1.3.12,3.44,3.44,0,0,0-1.08.38,2.08,2.08,0,0,0-.77.76,2.42,2.42,0,0,0-.28,1.22,2.09,2.09,0,0,0,.78,1.73,7.39,7.39,0,0,0,2,1.09c.79.3,1.64.6,2.57.88a12.32,12.32,0,0,1,2.57,1.08,6.3,6.3,0,0,1,2,1.69,4.38,4.38,0,0,1,.78,2.71A5.66,5.66,0,0,1,152.4,34a6.09,6.09,0,0,1-1.85,2,8.23,8.23,0,0,1-2.7,1.22,13,13,0,0,1-3.3.4q-.65,0-1.35-.06c-.47,0-.93-.09-1.39-.15s-.88-.13-1.27-.21a7.39,7.39,0,0,1-1-.23l-.88-.22Z"/><path class="cls-149" d="M185.78,17.28V15a7.7,7.7,0,0,1,1.83-5.44,6.73,6.73,0,0,1,5.21-2,14,14,0,0,1,3,.32,8.4,8.4,0,0,1,2,.67l.65.34v4.76h-3.25v-3a13.57,13.57,0,0,0-2.59-.19q-3.12,0-3.12,3.8v23h-3.79v-20Z"/><path class="cls-149" d="M213,27.67l-13.14.08a7.73,7.73,0,0,0,1.5,5,4.93,4.93,0,0,0,4,1.87,9.55,9.55,0,0,0,1.68-.16,14.6,14.6,0,0,0,1.58-.38,10.57,10.57,0,0,0,1.35-.51,10.37,10.37,0,0,0,1-.55l.76-.5,1.33,2a16.27,16.27,0,0,1-2.38,1.62,15.42,15.42,0,0,1-2.55,1.07,10.49,10.49,0,0,1-3.18.47c-3,0-5.27-.9-6.82-2.72a11.15,11.15,0,0,1-2.32-7.44,13.14,13.14,0,0,1,.69-4.35,10.32,10.32,0,0,1,1.92-3.41,8.72,8.72,0,0,1,6.72-3q8,0,8,9ZM200,24.9h9.14a6.59,6.59,0,0,0-1-3.78,3.61,3.61,0,0,0-3.2-1.44,4.41,4.41,0,0,0-3.46,1.46A6.34,6.34,0,0,0,200,24.9"/><path class="cls-149" d="M134.72,10.72a3.29,3.29,0,1,1-3.29-3.29,3.28,3.28,0,0,1,3.29,3.29"/><path class="cls-149" d="M95.1,30.65l0-13.94-5.65,0v13c0,2.77.59,4.72,1.79,5.85s3.23,1.69,6.13,1.69V33.46c-1.52-.19-2.29-1.13-2.29-2.81"/><path class="cls-149" d="M83.74,16.38c-6.28,0-11.37,4.77-11.37,10.67s5.09,10.67,11.37,10.67,11.37-4.78,11.37-10.67S90,16.38,83.74,16.38M91,27a6.54,6.54,0,1,1-6.54-6.53A6.54,6.54,0,0,1,91,27"/><path class="cls-149" d="M167.17,16.38a10.67,10.67,0,1,0,10.74,10.67,10.7,10.7,0,0,0-10.74-10.67m8.37,10.81A7.55,7.55,0,1,1,168,19.64a7.56,7.56,0,0,1,7.55,7.55"/><path class="cls-149" d="M177.93,31V16.71h-3.8V31.36q0,3.2,1.79,4.55a7.81,7.81,0,0,0,4.34,1.34v-3c-1.54-.37-2.32-1.45-2.32-3.28"/><rect class="cls-149" x="182.37" y="16.71" width="12.19" height="3.05"/><polygon class="cls-149" points="1.21 51.4 1.21 54.52 4.47 54.52 4.47 55.46 1.21 55.46 1.21 58.66 4.86 58.66 4.86 59.61 0.01 59.61 0.01 50.44 4.86 50.44 4.86 51.4 1.21 51.4"/><path class="cls-149" d="M14.33,52.58a2.62,2.62,0,0,1,1,1,3.54,3.54,0,0,1,.37,1.69v4.3H14.53v-4.1A2.34,2.34,0,0,0,14,53.84a1.93,1.93,0,0,0-1.46-.57,2,2,0,0,0-1.47.57,2.39,2.39,0,0,0-.53,1.67v4.1H9.34V52.35h1.2v1.18a2.38,2.38,0,0,1,1-1,3.09,3.09,0,0,1,2.82,0"/><path class="cls-149" d="M26.82,56.4H21a2.47,2.47,0,0,0,.68,1.71,2.17,2.17,0,0,0,1.61.63,2.26,2.26,0,0,0,1.25-.33,1.87,1.87,0,0,0,.74-.88h1.3a3.35,3.35,0,0,1-1.18,1.58,3.49,3.49,0,0,1-2.11.62,3.54,3.54,0,0,1-1.82-.46A3.19,3.19,0,0,1,20.26,58a4.14,4.14,0,0,1-.45-2,4.19,4.19,0,0,1,.45-2,3.17,3.17,0,0,1,1.27-1.32,3.73,3.73,0,0,1,1.89-.46,3.54,3.54,0,0,1,1.8.45,3.27,3.27,0,0,1,1.22,1.23,3.57,3.57,0,0,1,.43,1.77,5.43,5.43,0,0,1-.05.72m-1.21-.88a2.4,2.4,0,0,0-.3-1.22,2.06,2.06,0,0,0-.83-.8,2.33,2.33,0,0,0-1.15-.28,2.2,2.2,0,0,0-1.58.62,2.45,2.45,0,0,0-.7,1.68Z"/><path class="cls-149" d="M34.42,52.23v1.26h-.31A1.91,1.91,0,0,0,32.7,54a2.33,2.33,0,0,0-.48,1.67v4H31V52.35h1.21v1.23a2.26,2.26,0,0,1,2.2-1.35"/><path class="cls-149" d="M43.14,52.67a2.92,2.92,0,0,1,1,1.13V52.35H45.4V59.8A3.53,3.53,0,0,1,45,61.56a3.06,3.06,0,0,1-1.23,1.19,3.79,3.79,0,0,1-1.84.43,4.32,4.32,0,0,1-1.67-.31A3.18,3.18,0,0,1,39,62a2.51,2.51,0,0,1-.57-1.29h1.18a1.82,1.82,0,0,0,.81,1,2.7,2.7,0,0,0,1.48.41,2.16,2.16,0,0,0,2.29-2.34V58.13a2.93,2.93,0,0,1-1,1.16,3,3,0,0,1-1.62.44,3.31,3.31,0,0,1-1.77-.48A3.47,3.47,0,0,1,38.5,57.9a4.21,4.21,0,0,1-.45-2A4,4,0,0,1,38.5,54a3.32,3.32,0,0,1,3-1.77,3,3,0,0,1,1.62.44m-2.62.92a2.28,2.28,0,0,0-.9.92,2.82,2.82,0,0,0-.34,1.42,3,3,0,0,0,.34,1.45,2.51,2.51,0,0,0,.9,1,2.33,2.33,0,0,0,1.21.34A2.35,2.35,0,0,0,43,58.37a2.43,2.43,0,0,0,.9-.95,3.2,3.2,0,0,0,0-2.87,2.4,2.4,0,0,0-.9-.94,2.35,2.35,0,0,0-1.22-.33,2.4,2.4,0,0,0-1.21.31"/><polygon class="cls-149" points="50.52 52.35 52.74 58.22 55.01 52.35 56.25 52.35 51.88 63.01 50.63 63.01 52.07 59.49 49.2 52.35 50.52 52.35"/><path class="cls-149" d="M72.28,58.34a2.61,2.61,0,0,1-1.06,1,3.48,3.48,0,0,1-1.68.37A4.14,4.14,0,0,1,68,59.42a2.53,2.53,0,0,1-1.11-.82,2.12,2.12,0,0,1-.4-1.28h1.28a1.49,1.49,0,0,0,.5,1,2,2,0,0,0,1.3.38A2.08,2.08,0,0,0,71,58.26a1.46,1.46,0,0,0,.51-1.15,1.21,1.21,0,0,0-.29-.84,1.84,1.84,0,0,0-.73-.47,11.65,11.65,0,0,0-1.16-.32,10,10,0,0,1-1.47-.43,2.29,2.29,0,0,1-1-.73,2.23,2.23,0,0,1-.39-1.39,2.53,2.53,0,0,1,.37-1.35,2.38,2.38,0,0,1,1.07-.9,3.72,3.72,0,0,1,1.62-.33,3.2,3.2,0,0,1,2,.62,2.4,2.4,0,0,1,.91,1.7H71.13a1.33,1.33,0,0,0-.51-.93,1.8,1.8,0,0,0-1.22-.38,2,2,0,0,0-1.27.39,1.36,1.36,0,0,0-.49,1.14,1.24,1.24,0,0,0,.29.86,1.82,1.82,0,0,0,.72.48q.43.15,1.2.33A10.06,10.06,0,0,1,71.3,55a2.19,2.19,0,0,1,1,.71A2.08,2.08,0,0,1,72.64,57a2.5,2.5,0,0,1-.36,1.3"/><path class="cls-149" d="M82.12,52.69A3.31,3.31,0,0,1,83.44,54a4,4,0,0,1,.48,2,3.82,3.82,0,0,1-.5,1.95,3.45,3.45,0,0,1-1.36,1.32,4,4,0,0,1-1.91.47,3.61,3.61,0,0,1-1.83-.46A3.3,3.3,0,0,1,77.05,58a4,4,0,0,1-.46-2,3.88,3.88,0,0,1,.49-2,3.39,3.39,0,0,1,1.31-1.32,3.78,3.78,0,0,1,1.87-.46,3.75,3.75,0,0,1,1.86.46M79,53.54a2.19,2.19,0,0,0-.86.94A3.18,3.18,0,0,0,77.82,56a3.25,3.25,0,0,0,.32,1.49,2.13,2.13,0,0,0,.83.94,2.3,2.3,0,0,0,1.18.32,2.48,2.48,0,0,0,2.17-1.27A2.92,2.92,0,0,0,82.68,56a3.09,3.09,0,0,0-.34-1.51,2.27,2.27,0,0,0-.9-.94,2.44,2.44,0,0,0-1.22-.32,2.4,2.4,0,0,0-1.21.32"/><rect class="cls-149" x="88.07" y="49.82" width="1.2" height="9.79"/><path class="cls-149" d="M100.23,52.35v7.26H99V58.45a2.44,2.44,0,0,1-1,1,3,3,0,0,1-1.39.32,3,3,0,0,1-1.42-.35,2.5,2.5,0,0,1-1-1,3.48,3.48,0,0,1-.38-1.68V52.35H95v4.11a2.32,2.32,0,0,0,.54,1.66,2.13,2.13,0,0,0,2.92,0A2.32,2.32,0,0,0,99,56.46V52.35Z"/><path class="cls-149" d="M108.24,58.63v1H107a2,2,0,0,1-1.41-.45,1.85,1.85,0,0,1-.48-1.41V53.33h-.94v-1h.94v-1.8h1.21v1.8h1.88v1h-1.88v4.42a.74.74,0,0,0,.9.88Z"/><path class="cls-149" d="M112.24,49.78a.81.81,0,0,1,1.15,0,.83.83,0,0,1,0,1.17.82.82,0,0,1-1.16,0,.84.84,0,0,1-.23-.59.8.8,0,0,1,.24-.58m1.17,9.83H112.2V52.35h1.21Z"/><path class="cls-149" d="M123.09,52.69A3.35,3.35,0,0,1,124.4,54a3.87,3.87,0,0,1,.49,2,3.73,3.73,0,0,1-.51,1.95A3.45,3.45,0,0,1,123,59.26a3.93,3.93,0,0,1-1.9.47,3.61,3.61,0,0,1-1.83-.46A3.26,3.26,0,0,1,118,58a4.14,4.14,0,0,1-.45-2,4,4,0,0,1,.48-2,3.35,3.35,0,0,1,1.32-1.32,3.75,3.75,0,0,1,1.86-.46,3.78,3.78,0,0,1,1.87.46m-3.11.85a2.27,2.27,0,0,0-.87.94,3.3,3.3,0,0,0-.32,1.51,3.25,3.25,0,0,0,.31,1.49,2.21,2.21,0,0,0,.84.94,2.24,2.24,0,0,0,1.18.32,2.52,2.52,0,0,0,2.17-1.27,3,3,0,0,0,.35-1.48,3.21,3.21,0,0,0-.33-1.51,2.4,2.4,0,0,0-.9-.94,2.51,2.51,0,0,0-1.23-.32,2.34,2.34,0,0,0-1.2.32"/><path class="cls-149" d="M134,52.58a2.5,2.5,0,0,1,1,1,3.54,3.54,0,0,1,.38,1.69v4.3h-1.19v-4.1a2.39,2.39,0,0,0-.53-1.67,2.17,2.17,0,0,0-2.93,0,2.35,2.35,0,0,0-.54,1.67v4.1H129V52.35h1.2v1.18a2.41,2.41,0,0,1,1-1,3.07,3.07,0,0,1,2.81,0"/><path class="cls-149" d="M144.36,52.84a2.36,2.36,0,0,1,.75,1.69h-1.24a1.44,1.44,0,0,0-.41-1,1.5,1.5,0,0,0-1.06-.37,1.62,1.62,0,0,0-1.08.33,1,1,0,0,0-.39.81.89.89,0,0,0,.25.66,1.51,1.51,0,0,0,.6.36c.25.08.57.16,1,.25a10.24,10.24,0,0,1,1.28.36,1.86,1.86,0,0,1,.82.6,1.89,1.89,0,0,1,0,2.19,2.11,2.11,0,0,1-1,.73,3.58,3.58,0,0,1-1.43.26,2.94,2.94,0,0,1-1.95-.61,2.24,2.24,0,0,1-.8-1.68H141a1.32,1.32,0,0,0,.43,1,1.52,1.52,0,0,0,1.08.37,1.82,1.82,0,0,0,1.14-.31,1,1,0,0,0,.41-.8.87.87,0,0,0-.25-.66,1.61,1.61,0,0,0-.61-.37q-.37-.12-1-.27a8.93,8.93,0,0,1-1.26-.35,2,2,0,0,1-.82-.56,1.54,1.54,0,0,1-.34-1.06,1.85,1.85,0,0,1,.34-1.09,2.3,2.3,0,0,1,1-.79,3.52,3.52,0,0,1,1.46-.29,2.75,2.75,0,0,1,1.87.61"/><path class="cls-149" d="M157.41,55.83v3.78h-1.2V50.44h3a3.87,3.87,0,0,1,1.75.36,2.39,2.39,0,0,1,1.07,1,2.68,2.68,0,0,1,.36,1.38,2.56,2.56,0,0,1-.79,1.93,3.3,3.3,0,0,1-2.39.76Zm3.25-1.41a1.69,1.69,0,0,0,.48-1.28,1.67,1.67,0,0,0-.48-1.27,2,2,0,0,0-1.48-.46h-1.77v3.46h1.77a2.1,2.1,0,0,0,1.48-.45"/><path class="cls-149" d="M169.87,58.63v1h-1.21a2,2,0,0,1-1.41-.45,1.81,1.81,0,0,1-.48-1.41V53.33h-1v-1h1v-1.8H168v1.8h1.88v1H168v4.42a1,1,0,0,0,.2.68.93.93,0,0,0,.7.2Z"/><polygon class="cls-149" points="174.33 52.35 176.55 58.22 178.81 52.35 180.06 52.35 175.68 63.01 174.43 63.01 175.88 59.49 173.01 52.35 174.33 52.35"/><polygon class="cls-149" points="191.67 58.69 194.88 58.69 194.88 59.61 190.47 59.61 190.47 50.44 191.67 50.44 191.67 58.69"/><path class="cls-149" d="M202.16,58.63v1h-1.22a2,2,0,0,1-1.41-.45,1.85,1.85,0,0,1-.48-1.41V53.33h-.94v-1h.94v-1.8h1.22v1.8h1.88v1h-1.88v4.42a.91.91,0,0,0,.2.68.93.93,0,0,0,.7.2Z"/><path class="cls-149" d="M210.74,52.67a2.92,2.92,0,0,1,1,1.13v-4H213v9.79h-1.21V58.13a2.93,2.93,0,0,1-1,1.16,3,3,0,0,1-1.62.44,3.31,3.31,0,0,1-1.77-.48,3.44,3.44,0,0,1-1.24-1.35,4.09,4.09,0,0,1-.46-2,3.91,3.91,0,0,1,.46-1.93,3.33,3.33,0,0,1,1.24-1.31,3.39,3.39,0,0,1,1.77-.46,3,3,0,0,1,1.62.44m-2.62.92a2.28,2.28,0,0,0-.9.92,2.82,2.82,0,0,0-.34,1.42,3,3,0,0,0,.34,1.45,2.51,2.51,0,0,0,.9,1,2.37,2.37,0,0,0,3.33-.94,3.2,3.2,0,0,0,0-2.87,2.39,2.39,0,0,0-2.12-1.27,2.42,2.42,0,0,0-1.21.31"/></svg>